<?xml version="1.0" standalone="no"?>
<!DOCTYPE svg PUBLIC "-//W3C//DTD SVG 20010904//EN"
 "http://www.w3.org/TR/2001/REC-SVG-20010904/DTD/svg10.dtd">
<svg version="1.0" xmlns="http://www.w3.org/2000/svg"
 width="543.000000pt" height="460.000000pt" viewBox="0 0 543.000000 460.000000"
 preserveAspectRatio="xMidYMid meet">

<g transform="translate(0.000000,460.000000) scale(0.100000,-0.100000)"
fill="#000000" stroke="none">
<path d="M2016 4568 c-3 -13 -1 -24 4 -26 6 -2 10 -12 10 -23 0 -27 30 -37 46
-14 11 15 9 22 -14 51 -32 40 -38 41 -46 12z"/>
<path d="M2230 4544 c0 -8 5 -12 10 -9 6 4 8 11 5 16 -9 14 -15 11 -15 -7z"/>
<path d="M1650 4524 c0 -8 5 -12 10 -9 6 4 8 11 5 16 -9 14 -15 11 -15 -7z"/>
<path d="M1680 4500 c0 -5 5 -10 10 -10 6 0 10 5 10 10 0 6 -4 10 -10 10 -5 0
-10 -4 -10 -10z"/>
<path d="M2130 4490 c-6 -11 -7 -20 -3 -20 4 0 2 -5 -5 -12 -14 -14 -15 -47
-3 -67 16 -24 44 6 37 39 -3 15 -1 31 5 37 11 11 2 43 -12 43 -4 0 -13 -9 -19
-20z"/>
<path d="M2350 4489 c0 -5 5 -7 10 -4 6 3 10 8 10 11 0 2 -4 4 -10 4 -5 0 -10
-5 -10 -11z"/>
<path d="M1971 4464 c0 -11 3 -14 6 -6 3 7 2 16 -1 19 -3 4 -6 -2 -5 -13z"/>
<path d="M1750 4450 c0 -5 5 -10 10 -10 6 0 10 5 10 10 0 6 -4 10 -10 10 -5 0
-10 -4 -10 -10z"/>
<path d="M1954 4429 c-10 -17 13 -36 27 -22 12 12 4 33 -11 33 -5 0 -12 -5
-16 -11z"/>
<path d="M1660 4415 c0 -8 5 -15 10 -15 6 0 10 7 10 15 0 8 -4 15 -10 15 -5 0
-10 -7 -10 -15z"/>
<path d="M1830 4420 c0 -5 7 -10 16 -10 8 0 12 5 9 10 -3 6 -10 10 -16 10 -5
0 -9 -4 -9 -10z"/>
<path d="M2356 4412 c-3 -6 -1 -14 5 -17 15 -10 25 3 12 16 -7 7 -13 7 -17 1z"/>
<path d="M1750 4400 c0 -5 5 -10 10 -10 6 0 10 5 10 10 0 6 -4 10 -10 10 -5 0
-10 -4 -10 -10z"/>
<path d="M2200 4378 c0 -18 7 -42 15 -52 11 -15 12 -22 4 -27 -7 -4 -9 -15 -5
-24 5 -14 9 -15 21 -5 17 14 35 5 35 -16 0 -10 -6 -13 -19 -9 -45 14 -67 -18
-50 -75 10 -34 15 -38 52 -43 26 -4 47 -14 57 -27 16 -21 18 -21 33 -5 10 9
14 22 10 28 -5 7 -8 25 -8 41 0 23 -5 31 -24 36 -29 7 -42 33 -15 29 44 -5 75
34 38 48 -34 13 -64 50 -64 80 0 36 -16 53 -52 53 -25 0 -28 -3 -28 -32z"/>
<path d="M1800 4349 c0 -5 10 -9 22 -9 12 0 18 3 14 7 -10 11 -36 12 -36 2z"/>
<path d="M2017 4343 c-13 -12 -7 -43 8 -43 9 0 15 9 15 25 0 24 -10 32 -23 18z"/>
<path d="M1956 4331 c-4 -5 -2 -12 3 -15 5 -4 12 -2 15 3 4 5 2 12 -3 15 -5 4
-12 2 -15 -3z"/>
<path d="M2146 4322 c-3 -5 1 -9 9 -9 8 0 15 4 15 9 0 4 -4 8 -9 8 -6 0 -12
-4 -15 -8z"/>
<path d="M1747 4298 c-4 -12 -4 -24 -2 -26 8 -8 36 28 30 38 -10 16 -22 11
-28 -12z"/>
<path d="M1784 4276 c-10 -8 -16 -18 -11 -22 9 -10 58 16 51 28 -7 12 -17 10
-40 -6z"/>
<path d="M2014 4265 c-9 -35 6 -49 32 -31 15 12 17 19 8 32 -17 28 -33 28 -40
-1z"/>
<path d="M1215 4240 c-10 -17 12 -37 25 -24 8 8 6 15 -4 23 -10 9 -16 9 -21 1z"/>
<path d="M1717 4238 c-6 -19 11 -48 29 -48 19 0 36 42 20 52 -17 12 -44 9 -49
-4z"/>
<path d="M1315 4170 c3 -5 8 -10 11 -10 2 0 4 5 4 10 0 6 -5 10 -11 10 -5 0
-7 -4 -4 -10z"/>
<path d="M2070 4150 c0 -5 5 -10 10 -10 6 0 10 5 10 10 0 6 -4 10 -10 10 -5 0
-10 -4 -10 -10z"/>
<path d="M1966 4142 c-13 -12 -5 -22 18 -22 14 0 28 -5 31 -10 7 -12 25 -4 25
12 0 5 -7 8 -15 4 -8 -3 -15 -2 -15 3 0 10 -37 21 -44 13z"/>
<path d="M3931 4136 c-8 -9 -11 -19 -7 -23 9 -9 29 13 24 27 -2 8 -8 7 -17 -4z"/>
<path d="M1335 4120 c3 -5 8 -10 11 -10 2 0 4 5 4 10 0 6 -5 10 -11 10 -5 0
-7 -4 -4 -10z"/>
<path d="M2160 4121 c0 -6 5 -13 10 -16 6 -3 10 1 10 9 0 9 -4 16 -10 16 -5 0
-10 -4 -10 -9z"/>
<path d="M1755 4111 c-3 -6 -3 -16 1 -23 13 -20 10 -57 -3 -62 -18 -7 -16 -36
2 -36 8 0 15 8 15 18 0 10 5 23 11 29 13 13 8 75 -8 80 -6 2 -14 -1 -18 -6z"/>
<path d="M2540 4105 c-7 -9 -9 -26 -5 -45 7 -33 -1 -38 -31 -15 -26 20 -34 19
-34 -6 0 -11 -15 -35 -33 -52 -19 -18 -37 -39 -40 -47 -3 -8 -6 -1 -6 16 -1
33 -40 84 -64 84 -8 0 -22 11 -31 25 -34 52 -70 17 -60 -59 l7 -45 48 6 c39 5
50 3 55 -11 3 -9 1 -23 -6 -31 -16 -19 24 -75 49 -68 9 2 25 -5 35 -16 11 -12
29 -21 42 -21 21 0 22 4 20 46 -4 46 -26 88 -26 48 0 -11 -5 -25 -12 -32 -9
-9 -9 -12 0 -12 7 0 12 -4 12 -10 0 -16 -31 2 -39 23 -8 21 16 77 32 77 4 0 7
10 8 23 0 14 2 17 6 7 3 -8 12 -23 21 -33 14 -16 16 -14 33 22 9 22 26 44 37
50 27 14 36 45 22 71 -13 24 -23 25 -40 5z"/>
<path d="M1370 4099 c0 -5 5 -9 12 -9 6 0 19 -7 29 -16 21 -19 43 -10 30 13
-9 17 -71 27 -71 12z"/>
<path d="M2750 4094 c0 -8 5 -12 10 -9 6 4 8 11 5 16 -9 14 -15 11 -15 -7z"/>
<path d="M1950 4086 c0 -9 5 -16 10 -16 6 0 10 4 10 9 0 6 -4 13 -10 16 -5 3
-10 -1 -10 -9z"/>
<path d="M2820 4065 c0 -8 5 -15 10 -15 6 0 10 7 10 15 0 8 -4 15 -10 15 -5 0
-10 -7 -10 -15z"/>
<path d="M2883 4064 c-9 -23 11 -38 26 -20 13 16 7 36 -10 36 -5 0 -12 -7 -16
-16z"/>
<path d="M1505 4060 c-8 -13 4 -32 16 -25 12 8 12 35 0 35 -6 0 -13 -4 -16
-10z"/>
<path d="M1823 4054 c-8 -22 15 -44 26 -25 10 16 4 41 -10 41 -5 0 -12 -7 -16
-16z"/>
<path d="M1910 4061 c0 -6 5 -13 10 -16 6 -3 10 1 10 9 0 9 -4 16 -10 16 -5 0
-10 -4 -10 -9z"/>
<path d="M2380 4060 c0 -5 5 -10 10 -10 6 0 10 5 10 10 0 6 -4 10 -10 10 -5 0
-10 -4 -10 -10z"/>
<path d="M930 4050 c0 -5 5 -10 10 -10 6 0 10 5 10 10 0 6 -4 10 -10 10 -5 0
-10 -4 -10 -10z"/>
<path d="M1460 4046 c0 -16 24 -38 33 -30 8 9 -11 44 -23 44 -6 0 -10 -6 -10
-14z"/>
<path d="M2350 4050 c0 -5 5 -10 11 -10 5 0 7 5 4 10 -3 6 -8 10 -11 10 -2 0
-4 -4 -4 -10z"/>
<path d="M1400 4040 c0 -5 5 -10 10 -10 6 0 10 5 10 10 0 6 -4 10 -10 10 -5 0
-10 -4 -10 -10z"/>
<path d="M2780 4029 c-8 -15 -8 -24 0 -34 8 -10 8 -14 -2 -18 -10 -4 -10 -7
-1 -18 11 -11 16 -9 28 7 33 41 36 52 19 68 -21 21 -31 20 -44 -5z"/>
<path d="M2060 4029 c0 -5 5 -7 10 -4 6 3 10 8 10 11 0 2 -4 4 -10 4 -5 0 -10
-5 -10 -11z"/>
<path d="M2014 4019 c-10 -17 13 -36 27 -22 12 12 4 33 -11 33 -5 0 -12 -5
-16 -11z"/>
<path d="M2395 4019 c-10 -15 3 -25 16 -12 7 7 7 13 1 17 -6 3 -14 1 -17 -5z"/>
<path d="M2637 4023 c-11 -10 -8 -53 3 -53 5 0 13 8 18 18 15 27 -2 55 -21 35z"/>
<path d="M1335 3998 c-9 -22 4 -43 17 -30 7 7 7 16 0 29 -10 17 -11 17 -17 1z"/>
<path d="M1784 3999 c-10 -17 23 -46 38 -31 8 8 8 15 -2 27 -15 18 -26 19 -36
4z"/>
<path d="M1497 3994 c-8 -8 1 -24 14 -24 5 0 9 7 9 15 0 15 -12 20 -23 9z"/>
<path d="M1530 3990 c0 -5 5 -10 10 -10 6 0 10 5 10 10 0 6 -4 10 -10 10 -5 0
-10 -4 -10 -10z"/>
<path d="M1436 3981 c-3 -5 -15 -7 -26 -4 -11 3 -26 3 -34 0 -20 -8 -8 -47 14
-47 22 0 50 -31 50 -57 0 -12 8 -23 20 -26 11 -3 23 -13 27 -24 3 -10 11 -21
17 -25 8 -5 7 -13 -1 -27 -11 -17 -10 -22 6 -31 11 -5 31 -10 44 -10 13 0 32
-9 42 -20 11 -13 31 -20 52 -20 19 0 43 -5 54 -10 22 -12 27 -42 5 -34 -37 14
-19 -53 22 -82 11 -7 23 -30 27 -50 3 -21 18 -52 32 -71 24 -31 24 -33 5 -30
-11 2 -27 9 -36 16 -11 9 -16 10 -16 2 0 -6 -6 -10 -12 -9 -7 2 -14 -7 -16
-19 -3 -17 0 -21 12 -17 12 5 16 0 16 -18 0 -36 29 -49 66 -29 17 9 29 22 27
28 -3 7 4 9 17 6 24 -6 23 -38 -1 -38 -9 0 -23 -5 -30 -12 -8 -6 -26 -14 -42
-18 -21 -6 -27 -4 -27 9 0 9 -4 16 -8 16 -4 0 -7 -27 -7 -60 1 -48 5 -64 25
-85 13 -14 18 -25 12 -25 -6 0 -14 5 -17 10 -3 6 -17 10 -31 10 -21 0 -24 -4
-19 -20 4 -12 2 -27 -4 -34 -18 -22 -2 -48 25 -42 19 5 24 2 24 -11 0 -15 2
-16 10 -3 9 13 11 13 20 0 7 -11 5 -17 -7 -21 -12 -4 -13 -8 -5 -13 9 -5 6
-14 -10 -31 -13 -14 -27 -20 -33 -15 -21 17 -27 14 -41 -20 -14 -32 -13 -36 3
-48 15 -11 16 -14 3 -22 -18 -11 -13 -15 23 -24 21 -5 27 -4 21 5 -4 7 -2 10
7 7 8 -3 15 -14 17 -26 2 -12 8 -22 13 -22 5 0 9 -9 9 -20 0 -14 7 -20 24 -20
36 0 55 -10 49 -26 -3 -7 2 -17 11 -20 15 -6 15 -9 1 -30 -17 -27 -7 -37 30
-28 43 11 30 -23 -20 -54 -25 -15 -45 -30 -45 -34 0 -16 17 -7 67 37 28 25 61
45 72 45 24 0 25 -4 11 -31 -8 -14 -7 -19 2 -19 7 0 22 -8 33 -16 20 -15 20
-15 1 -30 -19 -14 -19 -14 3 -38 16 -17 21 -31 16 -45 -5 -16 -3 -20 10 -15
13 5 15 2 10 -19 -5 -18 -2 -28 12 -36 17 -11 17 -12 -2 -26 -11 -9 -31 -15
-45 -13 -14 1 -31 -2 -39 -6 -23 -14 8 -25 42 -15 19 5 35 5 40 0 14 -14 -1
-31 -20 -24 -10 4 -14 2 -9 -5 7 -12 46 -13 63 0 15 12 26 -7 18 -32 -8 -25
20 -28 29 -3 6 15 8 15 16 3 8 -12 10 -10 10 8 0 12 5 21 12 20 7 -2 13 3 12
10 -1 6 -2 21 -2 32 -2 16 -8 19 -32 16 -22 -2 -28 0 -21 8 6 7 8 23 5 37 -4
22 -4 22 5 3 13 -29 41 -39 41 -15 0 11 -6 21 -12 24 -10 3 -8 10 5 23 16 18
17 18 17 -3 0 -13 8 -23 21 -26 17 -5 20 -11 17 -31 -4 -18 -1 -26 9 -26 8 0
11 5 8 10 -3 6 1 10 10 10 23 0 52 -17 58 -33 4 -11 -2 -13 -24 -11 -16 2 -29
-1 -29 -6 0 -6 12 -10 27 -10 29 0 22 -15 -12 -23 -19 -5 -19 -5 3 -12 24 -8
26 -13 12 -35 -7 -11 -10 -12 -10 -2 0 16 -39 51 -57 52 -7 0 -13 -7 -13 -15
0 -8 -7 -15 -15 -15 -8 0 -15 -9 -15 -19 0 -11 -5 -21 -12 -23 -9 -3 -9 -6 0
-12 7 -4 12 -2 12 3 0 6 9 11 19 11 11 0 22 6 25 13 4 8 10 5 22 -10 13 -18
22 -21 47 -16 18 3 36 10 42 14 15 15 28 10 16 -5 -7 -8 -23 -17 -37 -20 -14
-4 -23 -12 -21 -19 2 -7 -2 -19 -10 -28 -12 -15 -11 -17 17 -21 17 -3 33 -1
36 4 3 4 0 8 -5 8 -6 0 -11 4 -11 9 0 14 51 73 58 67 3 -3 -5 -13 -17 -23
l-22 -18 32 -38 c22 -27 35 -35 42 -28 14 14 30 14 22 1 -3 -5 0 -10 7 -10 7
0 25 -6 40 -14 26 -14 26 -13 33 20 3 19 3 39 0 44 -9 14 7 12 29 -5 10 -7 15
-18 11 -24 -3 -6 1 -21 9 -33 14 -19 16 -20 22 -4 5 13 9 14 20 5 15 -12 20
-34 5 -25 -5 3 -8 -6 -8 -20 0 -18 4 -24 16 -22 22 5 74 -77 66 -103 -4 -12
-2 -19 7 -19 8 -1 6 -6 -6 -15 -17 -13 -18 -15 -3 -15 12 0 17 -9 17 -30 0
-27 -3 -30 -24 -24 -13 3 -27 1 -30 -5 -4 -6 4 -13 19 -17 14 -3 25 -10 25
-14 0 -5 9 -11 19 -15 24 -7 36 -36 19 -47 -10 -6 -10 -8 1 -8 8 0 11 -7 8
-20 -3 -10 0 -21 7 -24 6 -2 1 -5 -11 -5 -28 -1 -31 -21 -4 -21 10 0 22 -7 25
-16 10 -26 7 -28 -13 -10 -19 17 -20 17 -35 -12 -16 -30 -15 -31 13 -45 27
-14 30 -13 34 5 3 12 10 17 17 13 8 -5 8 -10 0 -20 -8 -9 -6 -14 6 -19 14 -5
14 -9 3 -22 -10 -13 -10 -20 0 -36 7 -11 10 -23 7 -26 -9 -9 46 -42 70 -42 24
0 34 17 34 56 0 25 15 33 23 12 2 -7 8 -9 13 -5 4 4 4 16 -2 25 -12 20 2 102
17 102 5 0 9 5 9 10 0 6 -9 10 -20 10 -22 0 -25 7 -11 29 7 10 17 4 46 -28 40
-44 75 -53 117 -30 18 9 24 8 35 -7 12 -17 13 -17 13 2 0 14 5 10 16 -13 9
-18 23 -33 30 -33 19 0 18 63 -2 101 -8 17 -13 37 -11 44 3 7 -19 36 -49 66
-47 46 -53 57 -49 83 4 20 2 26 -4 17 -11 -17 -22 0 -11 18 5 8 15 11 25 7 10
-3 24 -1 31 5 11 9 14 6 14 -14 0 -14 5 -29 11 -32 6 -4 8 -12 6 -19 -3 -8 7
-12 30 -13 22 -1 33 3 30 10 -2 7 -12 11 -21 11 -12 -1 -16 7 -16 31 0 18 -6
36 -12 38 -10 4 -9 8 2 16 12 8 7 11 -23 11 -31 0 -38 3 -35 18 5 27 41 26 68
-3 30 -32 36 -32 49 6 10 30 11 30 63 25 44 -5 57 -3 76 14 13 10 21 24 18 29
-12 18 13 62 33 59 22 -4 67 46 76 85 4 15 11 30 16 33 16 10 9 53 -10 64 -25
13 -27 13 -45 -6 -9 -8 -16 -27 -16 -41 0 -15 -5 -23 -12 -20 -7 2 -12 14 -10
25 2 15 -2 22 -12 22 -9 0 -16 -6 -16 -13 0 -23 -38 -88 -45 -77 -3 5 -4 18
-1 28 8 28 -36 71 -68 65 -15 -3 -26 -1 -26 6 0 6 -9 11 -21 11 -14 0 -24 -10
-32 -30 -6 -16 -15 -30 -19 -30 -10 0 -11 54 -1 64 4 3 7 15 8 26 1 14 -5 20
-20 20 -12 0 -32 12 -44 26 -17 19 -29 24 -46 20 -29 -7 -55 2 -55 20 0 9 10
12 31 10 26 -3 30 -1 26 15 -3 10 1 20 9 23 8 3 14 12 14 21 0 26 -29 29 -53
7 -15 -14 -30 -19 -45 -15 -26 6 -24 26 2 31 17 4 34 17 83 65 22 20 24 20 40
4 11 -11 13 -17 5 -17 -7 0 -12 -4 -12 -10 0 -19 29 -10 35 11 4 12 13 19 23
16 17 -3 18 -9 7 -39 -4 -11 -3 -18 4 -18 6 0 11 7 11 15 0 17 35 21 45 5 4
-6 1 -18 -6 -26 -14 -17 2 -41 20 -29 12 7 9 63 -4 84 -4 8 1 18 14 27 12 9
28 29 37 45 8 17 25 34 37 39 14 6 17 9 6 9 -11 1 -14 9 -11 30 3 22 -1 32
-17 40 -13 7 -18 17 -14 28 5 14 8 13 14 -5 12 -31 37 -27 45 6 10 47 12 51
31 48 10 -2 13 -1 6 1 -6 2 -13 14 -15 26 -2 14 -10 22 -23 22 -15 0 -20 -7
-20 -30 -1 -21 -6 -30 -18 -30 -9 0 -22 -6 -28 -12 -9 -9 -17 -6 -32 14 -20
24 -20 26 -2 57 10 17 23 34 28 37 5 4 4 15 -2 28 -12 21 -31 29 -31 12 0 -5
-8 -12 -18 -16 -11 -3 -24 -17 -31 -32 l-12 -26 -26 24 c-20 18 -25 20 -20 7
4 -12 1 -18 -8 -18 -18 0 -20 -16 -4 -26 7 -4 27 -8 46 -9 40 -2 71 -25 35
-25 -16 0 -27 -11 -39 -35 -24 -51 -88 -59 -135 -17 -23 19 -23 44 -2 40 10
-2 18 5 20 16 1 10 7 22 12 25 5 3 12 15 16 27 3 11 24 36 46 54 22 19 40 37
40 40 0 4 -13 8 -30 9 -16 0 -44 2 -60 2 -29 2 -30 3 -13 21 13 14 19 16 26 6
6 -9 7 -8 3 4 -3 10 -1 20 4 23 13 8 13 45 0 45 -5 0 -14 9 -20 21 -18 33 15
101 34 70 6 -9 56 9 56 20 0 13 -29 31 -40 24 -5 -3 -10 -2 -10 4 0 17 20 23
35 11 9 -7 15 -8 15 -2 0 5 -7 15 -15 22 -9 8 -13 22 -9 39 3 14 7 36 10 49 4
22 33 32 35 12 1 -5 3 -14 4 -20 1 -5 3 -13 4 -17 0 -4 6 -2 13 5 9 9 8 16 -5
30 -16 18 -16 20 3 37 21 19 27 45 10 45 -6 0 -16 -11 -22 -25 -14 -30 -24
-32 -31 -5 -3 12 -14 20 -26 20 -17 0 -21 6 -21 30 0 20 -4 28 -13 24 -9 -3
-13 6 -13 30 0 33 1 35 18 19 16 -14 18 -14 24 1 4 10 2 22 -5 29 -22 22 -11
26 84 29 28 0 45 12 45 32 0 5 -18 6 -40 2 -25 -4 -40 -2 -40 4 0 18 -18 11
-25 -10 -4 -11 -10 -18 -15 -15 -4 3 -13 -2 -20 -10 -17 -20 -30 -19 -30 3 -1
36 -29 57 -78 58 -26 1 -58 4 -70 8 -21 7 -23 5 -18 -11 10 -32 -23 -55 -63
-43 -19 5 -42 17 -52 25 -14 13 -22 14 -39 5 -27 -14 -50 2 -47 33 1 13 -5 23
-15 25 -21 4 -82 -53 -73 -67 3 -6 2 -11 -2 -11 -17 0 -33 24 -33 48 0 21 4
23 25 18 27 -7 35 8 10 18 -8 3 -15 13 -15 21 0 9 -4 14 -10 10 -5 -3 -6 -13
-3 -21 4 -10 1 -15 -8 -13 -8 1 -22 -1 -31 -5 -22 -10 -52 0 -43 14 4 6 19 9
33 8 23 -3 27 1 30 25 3 27 -11 37 -23 16 -5 -6 -13 -3 -22 10 -8 12 -19 19
-24 15 -5 -3 -16 0 -24 6 -8 7 -15 9 -16 4 -1 -5 -2 -20 -2 -34 -2 -21 -6 -24
-29 -22 -22 3 -27 0 -22 -12 3 -9 10 -16 15 -16 5 0 9 -5 9 -10 0 -6 -11 -8
-25 -4 -22 5 -27 2 -37 -26 -9 -27 -12 -30 -20 -16 -14 25 -29 19 -23 -11 5
-29 -8 -43 -37 -43 -16 0 -16 2 2 20 24 24 26 72 4 95 -21 20 -38 15 -42 -14
-3 -16 -9 -21 -25 -19 -19 3 -22 9 -22 50 0 25 -3 44 -7 41 -16 -9 -7 13 11
29 10 8 20 21 22 27 5 15 36 4 43 -15 4 -10 -4 -18 -24 -26 -17 -5 -30 -16
-30 -24 0 -17 40 -19 40 -1 1 7 6 5 14 -5 7 -10 15 -18 18 -18 7 0 6 64 -1 70
-4 3 -12 27 -19 55 -16 59 -16 60 -39 50 -23 -10 -44 -7 -64 11 -14 12 -18 12
-33 -5 -14 -16 -17 -30 -12 -63 10 -72 12 -79 23 -86 7 -4 11 -16 10 -27 -2
-15 3 -19 21 -17 12 2 22 -2 22 -8 0 -6 -4 -9 -9 -5 -5 3 -12 1 -16 -5 -3 -5
-15 -15 -27 -21 -18 -9 -19 -8 -13 10 5 16 0 27 -17 41 -28 23 -39 25 -32 5 4
-8 1 -15 -5 -15 -6 0 -11 14 -11 30 0 17 -4 30 -9 30 -5 0 -7 -8 -4 -18 2 -10
-3 -24 -11 -31 -10 -9 -16 -30 -16 -58 0 -37 3 -44 18 -41 9 2 15 11 13 19
-11 43 -12 59 -3 59 6 0 12 -10 14 -22 2 -16 9 -22 21 -20 11 2 21 -6 26 -21
5 -13 22 -34 38 -45 23 -17 26 -24 17 -38 -6 -10 -17 -20 -25 -23 -12 -4 -12
-2 -1 12 19 22 6 38 -26 35 -24 -3 -27 0 -25 26 l2 28 -23 -23 c-15 -16 -19
-28 -13 -36 5 -7 13 -11 17 -8 4 3 14 -2 21 -11 10 -13 10 -17 -2 -25 -8 -5
-22 -7 -31 -5 -11 3 -15 -1 -11 -11 4 -10 -7 -7 -33 10 -21 14 -52 29 -69 33
-44 10 -73 32 -70 52 1 9 0 11 -2 5 -5 -16 -47 -17 -73 -3 -15 8 -26 4 -53
-20 -19 -16 -36 -30 -38 -30 -2 0 -5 11 -5 24 -1 16 5 26 18 29 15 4 17 11 12
31 -4 18 -2 26 7 26 12 0 12 2 0 9 -8 5 -11 16 -7 29 4 11 0 38 -9 59 -10 24
-12 39 -5 41 5 2 10 10 10 18 0 8 6 11 15 8 8 -3 20 -2 26 2 9 5 4 14 -17 30
-26 21 -28 26 -16 45 10 15 11 24 3 32 -15 15 -22 5 -25 -35 -2 -18 -6 -43
-10 -55 -7 -22 -8 -22 -32 -7 -19 13 -37 15 -82 9 -31 -4 -60 -11 -63 -17 -8
-12 -57 12 -80 38 -22 26 -30 52 -19 59 6 4 10 10 10 16 0 12 -27 12 -34 0z
m324 -731 c0 -5 -2 -10 -4 -10 -3 0 -8 5 -11 10 -3 6 -1 10 4 10 6 0 11 -4 11
-10z m1415 -640 c3 -5 2 -10 -4 -10 -5 0 -18 -3 -28 -7 -16 -6 -16 -5 -4 10
15 19 27 22 36 7z m-1090 -30 c3 -5 1 -10 -4 -10 -6 0 -11 5 -11 10 0 6 2 10
4 10 3 0 8 -4 11 -10z m19 -35 c3 -8 1 -15 -4 -15 -6 0 -10 7 -10 15 0 8 2 15
4 15 2 0 6 -7 10 -15z m51 -41 c-13 -21 -19 -24 -26 -13 -5 9 -4 15 4 18 7 2
16 10 20 18 5 8 11 12 14 9 3 -3 -2 -17 -12 -32z m-47 -49 c-14 -15 -29 16
-15 33 9 12 12 11 18 -5 4 -10 3 -22 -3 -28z m2 -19 c0 -3 -4 -8 -10 -11 -5
-3 -10 -1 -10 4 0 6 5 11 10 11 6 0 10 -2 10 -4z m44 -62 c4 -9 3 -20 0 -23
-4 -3 -9 0 -11 7 -3 6 -11 12 -19 12 -9 0 -12 5 -9 10 10 16 32 12 39 -6z
m1218 -186 c-7 -7 -12 -8 -12 -2 0 14 12 26 19 19 2 -3 -1 -11 -7 -17z m-27
-108 c4 -6 -5 -10 -19 -10 -14 0 -26 5 -26 10 0 6 9 10 19 10 11 0 23 -4 26
-10z m-315 -125 c0 -22 -51 -68 -62 -57 -13 13 -2 32 18 32 8 0 13 3 13 8 -3
20 2 32 16 32 8 0 15 -7 15 -15z"/>
<path d="M1580 3966 c0 -9 7 -16 16 -16 9 0 14 5 12 12 -6 18 -28 21 -28 4z"/>
<path d="M2073 3965 c-3 -9 -3 -18 0 -21 9 -9 27 6 27 22 0 19 -19 18 -27 -1z"/>
<path d="M1910 3960 c0 -5 5 -10 10 -10 6 0 10 5 10 10 0 6 -4 10 -10 10 -5 0
-10 -4 -10 -10z"/>
<path d="M2931 3929 c-25 -51 -25 -49 -6 -49 8 0 15 4 15 9 0 5 9 11 21 14 16
4 20 12 17 33 -5 43 -25 40 -47 -7z"/>
<path d="M1856 3951 c-16 -26 42 -69 63 -48 17 17 13 27 -9 27 -11 0 -23 7
-26 15 -7 17 -20 20 -28 6z"/>
<path d="M2547 3953 c-12 -11 -8 -23 8 -23 8 0 15 7 15 15 0 16 -12 20 -23 8z"/>
<path d="M2656 3944 c-20 -20 -21 -54 -1 -54 16 0 35 30 35 54 0 20 -14 20
-34 0z"/>
<path d="M3210 3950 c0 -5 5 -10 11 -10 5 0 7 5 4 10 -3 6 -8 10 -11 10 -2 0
-4 -4 -4 -10z"/>
<path d="M1945 3941 c-3 -5 -1 -12 5 -16 5 -3 10 1 10 9 0 18 -6 21 -15 7z"/>
<path d="M2614 3926 c-8 -13 -18 -17 -32 -14 -12 4 -26 0 -33 -9 -10 -11 -8
-15 10 -20 18 -4 22 -12 19 -36 -4 -36 12 -45 36 -18 12 14 16 32 14 67 -3 42
-5 46 -14 30z"/>
<path d="M1686 3921 c-4 -5 -2 -12 3 -15 5 -4 12 -2 15 3 4 5 2 12 -3 15 -5 4
-12 2 -15 -3z"/>
<path d="M3011 3904 c-23 -29 -24 -34 -15 -58 8 -21 37 -20 57 2 21 24 22 68
1 76 -22 8 -20 9 -43 -20z"/>
<path d="M1304 3899 c-13 -22 12 -30 31 -9 18 19 18 20 -3 20 -11 0 -24 -5
-28 -11z"/>
<path d="M1867 3883 c-4 -3 -7 -11 -7 -17 0 -6 5 -5 12 2 6 6 9 14 7 17 -3 3
-9 2 -12 -2z"/>
<path d="M2716 3855 c-22 -34 -20 -38 14 -31 22 4 30 2 30 -9 0 -8 4 -15 9
-15 4 0 6 -11 3 -25 -6 -34 4 -31 24 7 15 30 15 32 -2 45 -10 7 -21 13 -25 13
-4 0 -11 9 -14 20 -8 27 -19 25 -39 -5z"/>
<path d="M2834 3866 c-3 -8 -4 -24 -2 -37 3 -19 4 -18 15 10 6 18 7 33 2 37
-5 3 -12 -1 -15 -10z"/>
<path d="M3140 3866 c0 -4 6 -14 14 -21 14 -14 26 -10 26 8 0 6 -3 7 -7 4 -3
-4 -12 -2 -20 4 -7 6 -13 8 -13 5z"/>
<path d="M1916 3845 c-8 -23 4 -45 25 -45 19 0 24 16 13 44 -8 20 -30 21 -38
1z"/>
<path d="M3535 3850 c-3 -5 -1 -10 4 -10 6 0 11 5 11 10 0 6 -2 10 -4 10 -3 0
-8 -4 -11 -10z"/>
<path d="M1990 3841 c8 -5 18 -7 24 -4 5 4 7 -6 3 -24 -5 -27 -4 -30 13 -26
11 3 25 12 31 20 17 20 -2 35 -48 40 -27 2 -34 0 -23 -6z"/>
<path d="M1212 3828 c6 -18 28 -21 28 -4 0 9 -7 16 -16 16 -9 0 -14 -5 -12
-12z"/>
<path d="M2323 3823 c9 -9 20 -13 24 -9 4 4 1 11 -7 16 -25 16 -35 11 -17 -7z"/>
<path d="M2855 3830 c-3 -5 -1 -10 4 -10 6 0 11 5 11 10 0 6 -2 10 -4 10 -3 0
-8 -4 -11 -10z"/>
<path d="M3236 3831 c-4 -7 -5 -15 -2 -18 9 -9 19 4 14 18 -4 11 -6 11 -12 0z"/>
<path d="M1448 3823 c7 -3 16 -2 19 1 4 3 -2 6 -13 5 -11 0 -14 -3 -6 -6z"/>
<path d="M1824 3816 c-6 -17 12 -56 27 -56 16 0 21 27 9 49 -12 24 -28 27 -36
7z"/>
<path d="M1300 3805 c0 -8 5 -15 10 -15 6 0 10 7 10 15 0 8 -4 15 -10 15 -5 0
-10 -7 -10 -15z"/>
<path d="M1886 3805 c4 -8 10 -15 15 -15 4 0 6 7 3 15 -4 8 -10 15 -15 15 -4
0 -6 -7 -3 -15z"/>
<path d="M2437 3803 c-12 -11 -8 -23 8 -23 8 0 15 7 15 15 0 16 -12 20 -23 8z"/>
<path d="M2622 3798 c-18 -18 -14 -35 9 -41 12 -3 18 -10 14 -16 -3 -6 1 -11
9 -11 12 0 15 10 13 40 -2 42 -20 53 -45 28z"/>
<path d="M2892 3798 c-19 -19 -14 -30 8 -18 11 6 20 15 20 20 0 14 -14 12 -28
-2z"/>
<path d="M2676 3791 c-3 -5 0 -20 7 -34 11 -21 15 -23 31 -12 14 11 15 17 6
34 -11 22 -35 28 -44 12z"/>
<path d="M3005 3790 c3 -5 8 -10 11 -10 2 0 4 5 4 10 0 6 -5 10 -11 10 -5 0
-7 -4 -4 -10z"/>
<path d="M1250 3780 c0 -5 7 -10 15 -10 8 0 15 5 15 10 0 6 -7 10 -15 10 -8 0
-15 -4 -15 -10z"/>
<path d="M2820 3770 c-17 -32 -1 -44 21 -16 23 29 24 36 4 36 -8 0 -19 -9 -25
-20z"/>
<path d="M3590 3780 c0 -5 4 -10 9 -10 6 0 13 5 16 10 3 6 -1 10 -9 10 -9 0
-16 -4 -16 -10z"/>
<path d="M1009 3778 c-12 -45 -6 -59 32 -78 37 -20 39 -20 39 -2 0 10 -11 25
-25 32 -14 7 -25 22 -25 32 0 10 -4 18 -10 18 -5 0 -10 -1 -11 -2z"/>
<path d="M1374 3766 c-4 -11 -1 -22 7 -28 11 -7 11 -11 2 -15 -7 -2 -13 -13
-13 -24 0 -10 -5 -19 -12 -19 -6 0 -9 -2 -7 -5 11 -10 47 8 42 21 -3 10 0 12
10 9 26 -11 28 25 2 52 -22 24 -25 25 -31 9z"/>
<path d="M1884 3767 c3 -10 6 -25 6 -33 0 -8 4 -14 10 -14 14 0 7 37 -10 53
-10 10 -12 9 -6 -6z"/>
<path d="M3170 3770 c0 -5 5 -10 10 -10 6 0 10 5 10 10 0 6 -4 10 -10 10 -5 0
-10 -4 -10 -10z"/>
<path d="M2330 3760 c0 -5 5 -10 10 -10 6 0 10 5 10 10 0 6 -4 10 -10 10 -5 0
-10 -4 -10 -10z"/>
<path d="M1280 3734 c8 -8 22 -20 33 -26 19 -10 19 -10 1 16 -11 14 -25 26
-33 26 -11 0 -11 -3 -1 -16z"/>
<path d="M1920 3738 c0 -7 -5 -20 -10 -28 -8 -13 -11 -13 -19 -1 -10 15 -68
23 -76 10 -3 -4 3 -17 15 -29 11 -11 20 -24 20 -30 0 -5 5 -10 10 -10 6 0 10
6 10 13 0 6 11 13 25 13 19 2 27 -4 31 -22 8 -29 11 -30 33 -2 24 29 54 18 45
-17 -5 -18 -2 -25 9 -25 8 0 23 -3 32 -7 14 -5 16 -2 10 18 -4 13 -14 29 -22
34 -8 6 -13 15 -11 20 3 11 -41 65 -54 65 -4 0 -8 -7 -8 -15 0 -8 -4 -15 -10
-15 -5 0 -10 9 -10 20 0 11 -4 20 -10 20 -5 0 -10 -6 -10 -12z"/>
<path d="M3546 3741 c-4 -5 -2 -12 3 -15 5 -4 12 -2 15 3 4 5 2 12 -3 15 -5 4
-12 2 -15 -3z"/>
<path d="M3580 3735 c0 -8 5 -15 10 -15 6 0 10 7 10 15 0 8 -4 15 -10 15 -5 0
-10 -7 -10 -15z"/>
<path d="M790 3730 c0 -5 5 -10 11 -10 5 0 7 5 4 10 -3 6 -8 10 -11 10 -2 0
-4 -4 -4 -10z"/>
<path d="M2020 3720 c0 -5 5 -10 10 -10 6 0 10 5 10 10 0 6 -4 10 -10 10 -5 0
-10 -4 -10 -10z"/>
<path d="M3150 3709 c0 -24 23 -21 28 4 2 10 -3 17 -12 17 -10 0 -16 -9 -16
-21z"/>
<path d="M3690 3710 c0 -5 5 -10 10 -10 6 0 10 5 10 10 0 6 -4 10 -10 10 -5 0
-10 -4 -10 -10z"/>
<path d="M1510 3699 c0 -5 5 -7 10 -4 6 3 10 8 10 11 0 2 -4 4 -10 4 -5 0 -10
-5 -10 -11z"/>
<path d="M2783 3695 c-3 -9 -3 -18 0 -21 9 -9 27 6 27 22 0 19 -19 18 -27 -1z"/>
<path d="M3700 3679 c0 -5 5 -7 10 -4 6 3 10 8 10 11 0 2 -4 4 -10 4 -5 0 -10
-5 -10 -11z"/>
<path d="M1285 3670 c3 -5 8 -10 11 -10 2 0 4 5 4 10 0 6 -5 10 -11 10 -5 0
-7 -4 -4 -10z"/>
<path d="M1605 3669 c-4 -6 -5 -13 -2 -16 7 -7 27 6 27 18 0 12 -17 12 -25 -2z"/>
<path d="M2870 3670 c0 -5 5 -10 10 -10 6 0 10 5 10 10 0 6 -4 10 -10 10 -5 0
-10 -4 -10 -10z"/>
<path d="M3240 3670 c0 -5 5 -10 10 -10 6 0 10 5 10 10 0 6 -4 10 -10 10 -5 0
-10 -4 -10 -10z"/>
<path d="M3467 3653 c-4 -3 -7 -11 -7 -17 0 -6 5 -5 12 2 6 6 9 14 7 17 -3 3
-9 2 -12 -2z"/>
<path d="M1970 3640 c0 -5 5 -10 11 -10 5 0 7 5 4 10 -3 6 -8 10 -11 10 -2 0
-4 -4 -4 -10z"/>
<path d="M3270 3639 c0 -5 5 -7 10 -4 6 3 10 8 10 11 0 2 -4 4 -10 4 -5 0 -10
-5 -10 -11z"/>
<path d="M1564 3629 c-4 -7 0 -17 8 -23 8 -6 18 -18 21 -26 3 -8 5 0 4 19 -3
36 -20 51 -33 30z"/>
<path d="M3826 3631 c-4 -7 -5 -15 -2 -18 9 -9 19 4 14 18 -4 11 -6 11 -12 0z"/>
<path d="M1345 3620 c4 -6 11 -8 16 -5 14 9 11 15 -7 15 -8 0 -12 -5 -9 -10z"/>
<path d="M1113 3605 c5 -14 29 -13 34 2 3 7 -4 11 -16 10 -12 -1 -20 -6 -18
-12z"/>
<path d="M1430 3611 c0 -5 5 -13 10 -16 6 -3 10 -2 10 4 0 5 -4 13 -10 16 -5
3 -10 2 -10 -4z"/>
<path d="M3260 3600 c0 -11 7 -20 15 -20 8 0 15 9 15 20 0 11 -7 20 -15 20 -8
0 -15 -9 -15 -20z"/>
<path d="M3395 3610 c-3 -5 -1 -10 4 -10 6 0 11 5 11 10 0 6 -2 10 -4 10 -3 0
-8 -4 -11 -10z"/>
<path d="M3630 3610 c0 -5 5 -10 10 -10 6 0 10 5 10 10 0 6 -4 10 -10 10 -5 0
-10 -4 -10 -10z"/>
<path d="M3665 3603 c-21 -20 -35 -57 -35 -89 0 -13 -5 -23 -12 -21 -6 1 -14
-6 -16 -15 -3 -15 3 -18 31 -18 19 0 40 7 47 15 7 8 19 15 27 15 8 0 11 4 8
10 -3 5 1 23 10 39 18 35 12 54 -20 69 -19 9 -28 8 -40 -5z"/>
<path d="M760 3600 c0 -5 5 -10 11 -10 5 0 7 5 4 10 -3 6 -8 10 -11 10 -2 0
-4 -4 -4 -10z"/>
<path d="M1302 3585 c25 -23 48 -32 48 -19 0 21 -24 44 -48 44 l-27 0 27 -25z"/>
<path d="M1366 3603 c-11 -11 -6 -23 9 -23 8 0 15 4 15 9 0 13 -16 22 -24 14z"/>
<path d="M1205 3590 c-8 -13 5 -13 25 0 13 8 13 10 -2 10 -9 0 -20 -4 -23 -10z"/>
<path d="M1493 3579 c-6 -6 -9 -18 -6 -25 6 -16 33 -19 33 -5 0 5 3 16 6 25 7
19 -16 22 -33 5z"/>
<path d="M1536 3561 c-9 -13 5 -42 17 -38 17 5 19 47 3 47 -8 0 -17 -4 -20 -9z"/>
<path d="M1107 3554 c-13 -13 -7 -24 14 -24 11 0 19 5 17 12 -5 14 -22 21 -31
12z"/>
<path d="M3320 3550 c0 -5 5 -10 10 -10 6 0 10 5 10 10 0 6 -4 10 -10 10 -5 0
-10 -4 -10 -10z"/>
<path d="M3415 3550 c3 -5 8 -10 11 -10 2 0 4 5 4 10 0 6 -5 10 -11 10 -5 0
-7 -4 -4 -10z"/>
<path d="M3530 3544 c0 -8 5 -12 10 -9 6 4 8 11 5 16 -9 14 -15 11 -15 -7z"/>
<path d="M1160 3540 c0 -5 5 -10 10 -10 6 0 10 5 10 10 0 6 -4 10 -10 10 -5 0
-10 -4 -10 -10z"/>
<path d="M3905 3540 c-4 -6 -3 -16 3 -22 6 -6 12 -6 17 2 4 6 3 16 -3 22 -6 6
-12 6 -17 -2z"/>
<path d="M1195 3530 c-3 -5 1 -10 10 -10 9 0 13 5 10 10 -3 6 -8 10 -10 10 -2
0 -7 -4 -10 -10z"/>
<path d="M1350 3520 c0 -5 7 -10 16 -10 8 0 12 5 9 10 -3 6 -10 10 -16 10 -5
0 -9 -4 -9 -10z"/>
<path d="M1665 3520 c-4 -6 -5 -12 -4 -13 32 -17 44 -26 47 -38 4 -10 0 -9
-15 4 -11 9 -27 17 -37 17 -9 0 -19 6 -21 13 -3 6 -19 11 -35 11 -42 -2 -42
-2 -30 -24 6 -10 29 -25 53 -32 23 -6 46 -18 50 -25 12 -19 35 -16 48 8 l11
21 26 -24 26 -23 -15 24 c-24 38 -96 94 -104 81z"/>
<path d="M3260 3520 c0 -5 4 -10 9 -10 6 0 13 5 16 10 3 6 -1 10 -9 10 -9 0
-16 -4 -16 -10z"/>
<path d="M3380 3510 c0 -24 26 -38 42 -22 8 8 8 15 -2 27 -18 21 -40 19 -40
-5z"/>
<path d="M1155 3510 c3 -5 8 -10 11 -10 2 0 4 5 4 10 0 6 -5 10 -11 10 -5 0
-7 -4 -4 -10z"/>
<path d="M1490 3500 c0 -5 5 -10 10 -10 6 0 10 5 10 10 0 6 -4 10 -10 10 -5 0
-10 -4 -10 -10z"/>
<path d="M1256 3485 c-17 -13 -18 -15 -2 -21 20 -8 29 -1 24 20 -3 13 -6 13
-22 1z"/>
<path d="M1330 3490 c20 -13 33 -13 25 0 -3 6 -14 10 -23 10 -15 0 -15 -2 -2
-10z"/>
<path d="M3132 3483 c2 -10 10 -18 18 -18 22 0 18 29 -3 33 -14 3 -18 -1 -15
-15z"/>
<path d="M3545 3490 c-3 -6 1 -7 9 -4 18 7 21 14 7 14 -6 0 -13 -4 -16 -10z"/>
<path d="M1418 3466 c-10 -7 -18 -17 -18 -21 0 -17 43 -53 56 -48 8 3 18 -5
24 -21 12 -33 36 -33 44 -1 8 32 3 41 -37 62 -18 9 -36 22 -42 29 -8 11 -13
11 -27 0z"/>
<path d="M3510 3474 c0 -14 47 -54 54 -47 12 12 6 43 -8 43 -8 0 -21 3 -30 6
-9 3 -16 2 -16 -2z"/>
<path d="M3835 3469 c-10 -15 3 -25 16 -12 7 7 7 13 1 17 -6 3 -14 1 -17 -5z"/>
<path d="M1190 3455 c7 -8 16 -12 21 -9 13 8 1 24 -18 24 -13 0 -13 -3 -3 -15z"/>
<path d="M1552 3448 c-16 -21 -20 -108 -4 -108 7 0 10 -5 6 -11 -3 -6 -19 -9
-35 -7 -35 5 -36 -5 -6 -42 20 -24 26 -26 41 -14 10 7 15 18 11 23 -3 6 0 24
8 40 9 18 11 33 5 39 -5 5 -4 19 3 35 19 41 -4 75 -29 45z"/>
<path d="M3300 3445 c-16 -20 -6 -45 19 -45 22 0 41 27 34 48 -6 17 -38 15
-53 -3z"/>
<path d="M995 3430 c-3 -5 -1 -10 4 -10 6 0 11 5 11 10 0 6 -2 10 -4 10 -3 0
-8 -4 -11 -10z"/>
<path d="M4016 3431 c-4 -7 -5 -15 -2 -18 9 -9 19 4 14 18 -4 11 -6 11 -12 0z"/>
<path d="M960 3416 c0 -8 5 -18 10 -21 6 -3 10 1 10 9 0 8 -4 18 -10 21 -5 3
-10 -1 -10 -9z"/>
<path d="M1130 3422 c0 -5 12 -14 26 -21 20 -9 25 -9 22 1 -3 7 -9 13 -14 13
-5 0 -15 4 -21 8 -7 5 -13 4 -13 -1z"/>
<path d="M3456 3423 c-12 -12 -6 -33 9 -33 8 0 15 6 15 14 0 17 -14 28 -24 19z"/>
<path d="M1200 3410 c0 -5 5 -10 11 -10 5 0 7 5 4 10 -3 6 -8 10 -11 10 -2 0
-4 -4 -4 -10z"/>
<path d="M3795 3409 c-4 -6 -5 -13 -2 -16 7 -7 27 6 27 18 0 12 -17 12 -25 -2z"/>
<path d="M1390 3406 c0 -2 7 -7 16 -10 8 -3 12 -2 9 4 -6 10 -25 14 -25 6z"/>
<path d="M1320 3390 c0 -5 7 -10 16 -10 8 0 12 5 9 10 -3 6 -10 10 -16 10 -5
0 -9 -4 -9 -10z"/>
<path d="M1640 3379 c0 -5 5 -7 10 -4 6 3 10 8 10 11 0 2 -4 4 -10 4 -5 0 -10
-5 -10 -11z"/>
<path d="M3740 3376 c0 -17 27 -29 35 -16 4 6 3 15 0 20 -9 15 -35 12 -35 -4z"/>
<path d="M3450 3370 c0 -5 5 -10 10 -10 6 0 10 5 10 10 0 6 -4 10 -10 10 -5 0
-10 -4 -10 -10z"/>
<path d="M3543 3373 c-15 -5 -17 -39 -4 -47 4 -3 17 1 27 9 17 12 17 15 4 28
-8 8 -21 13 -27 10z"/>
<path d="M3345 3361 c-9 -15 12 -22 40 -15 20 5 23 9 13 15 -17 12 -45 11 -53
0z"/>
<path d="M3824 3355 c-4 -10 2 -24 14 -36 29 -26 34 -24 30 13 -3 36 -33 51
-44 23z"/>
<path d="M1295 3350 c3 -5 8 -10 11 -10 2 0 4 5 4 10 0 6 -5 10 -11 10 -5 0
-7 -4 -4 -10z"/>
<path d="M1690 3345 c0 -8 7 -15 15 -15 8 0 15 7 15 15 0 8 -7 15 -15 15 -8 0
-15 -7 -15 -15z"/>
<path d="M764 3334 c3 -8 6 -18 6 -20 0 -2 7 -4 15 -4 18 0 9 26 -12 34 -11 5
-13 2 -9 -10z"/>
<path d="M3470 3340 c0 -5 5 -10 10 -10 6 0 10 5 10 10 0 6 -4 10 -10 10 -5 0
-10 -4 -10 -10z"/>
<path d="M1157 3334 c-9 -10 2 -24 19 -24 8 0 14 7 14 15 0 15 -21 21 -33 9z"/>
<path d="M3250 3331 c0 -5 -13 -18 -30 -28 -36 -21 -37 -26 -5 -43 29 -16 32
-37 8 -56 -17 -13 -17 -13 2 -14 12 0 26 -5 33 -12 8 -8 12 -9 12 -1 0 6 -5
13 -11 15 -14 5 13 123 29 123 23 0 12 19 -13 22 -14 2 -25 -1 -25 -6z"/>
<path d="M1106 3321 c-3 -5 1 -11 9 -15 9 -3 15 0 15 9 0 16 -16 20 -24 6z"/>
<path d="M1350 3320 c0 -13 18 -22 24 -11 3 5 -1 11 -9 15 -8 3 -15 1 -15 -4z"/>
<path d="M1663 3308 c2 -7 10 -13 17 -13 7 0 15 6 18 13 2 7 -5 12 -18 12 -13
0 -20 -5 -17 -12z"/>
<path d="M1057 3304 c-9 -9 4 -35 14 -28 5 3 9 12 9 20 0 14 -12 19 -23 8z"/>
<path d="M3590 3291 c0 -12 5 -21 10 -21 6 0 10 6 10 14 0 8 -4 18 -10 21 -5
3 -10 -3 -10 -14z"/>
<path d="M730 3290 c0 -5 5 -10 11 -10 5 0 7 5 4 10 -3 6 -8 10 -11 10 -2 0
-4 -4 -4 -10z"/>
<path d="M1155 3289 c-10 -15 1 -23 20 -15 9 3 13 10 10 16 -8 13 -22 13 -30
-1z"/>
<path d="M3295 3291 c3 -5 1 -12 -3 -15 -14 -8 -7 -51 8 -51 7 0 15 6 18 13 2
6 -1 12 -7 12 -7 0 -9 10 -5 25 4 16 2 25 -6 25 -6 0 -9 -4 -5 -9z"/>
<path d="M3390 3281 c0 -11 4 -21 9 -21 18 0 21 18 6 30 -13 10 -15 9 -15 -9z"/>
<path d="M644 3275 c-8 -21 2 -32 36 -37 27 -4 30 -2 24 16 -11 36 -50 49 -60
21z"/>
<path d="M1390 3271 c0 -5 5 -13 10 -16 6 -3 10 -2 10 4 0 5 -4 13 -10 16 -5
3 -10 2 -10 -4z"/>
<path d="M1436 3253 c8 -35 22 -53 40 -53 20 0 17 13 -6 28 -11 7 -20 21 -20
32 0 11 -5 20 -10 20 -6 0 -8 -11 -4 -27z"/>
<path d="M1470 3270 c0 -5 5 -10 10 -10 6 0 10 5 10 10 0 6 -4 10 -10 10 -5 0
-10 -4 -10 -10z"/>
<path d="M3530 3270 c0 -5 7 -10 16 -10 8 0 12 5 9 10 -3 6 -10 10 -16 10 -5
0 -9 -4 -9 -10z"/>
<path d="M1345 3259 c-8 -12 3 -29 19 -29 8 0 21 -10 29 -22 l16 -23 0 25 c1
18 -8 30 -29 42 -17 10 -32 13 -35 7z"/>
<path d="M1613 3255 c-17 -9 -20 -14 -11 -23 13 -13 48 -16 47 -4 -2 28 -15
38 -36 27z"/>
<path d="M880 3250 c0 -5 7 -10 16 -10 8 0 12 5 9 10 -3 6 -10 10 -16 10 -5 0
-9 -4 -9 -10z"/>
<path d="M1075 3250 c-3 -5 -3 -15 1 -21 6 -11 23 6 24 24 0 10 -18 9 -25 -3z"/>
<path d="M1292 3249 c2 -6 8 -10 13 -10 5 0 11 4 13 10 2 6 -4 11 -13 11 -9 0
-15 -5 -13 -11z"/>
<path d="M3595 3240 c-7 -12 2 -30 16 -30 12 0 12 27 0 35 -5 3 -12 1 -16 -5z"/>
<path d="M1540 3235 c0 -3 9 -15 19 -26 13 -14 21 -17 26 -9 4 6 -1 18 -11 25
-20 15 -34 19 -34 10z"/>
<path d="M3765 3231 c-3 -6 4 -15 15 -21 17 -9 20 -8 20 10 0 20 -24 28 -35
11z"/>
<path d="M3950 3224 c0 -17 22 -14 28 4 2 7 -3 12 -12 12 -9 0 -16 -7 -16 -16z"/>
<path d="M895 3211 c-12 -21 42 -81 74 -81 15 0 42 31 35 41 -14 23 -99 55
-109 40z"/>
<path d="M1107 3196 c-25 -38 -49 -57 -63 -52 -25 10 -24 -12 1 -28 14 -9 25
-25 25 -35 0 -59 110 -69 176 -16 l29 23 -30 56 c-41 77 -106 102 -138 52z"/>
<path d="M3365 3210 c-3 -5 -1 -10 4 -10 6 0 11 5 11 10 0 6 -2 10 -4 10 -3 0
-8 -4 -11 -10z"/>
<path d="M830 3194 c0 -17 22 -14 28 4 2 7 -3 12 -12 12 -9 0 -16 -7 -16 -16z"/>
<path d="M625 3190 c3 -5 10 -10 16 -10 5 0 9 5 9 10 0 6 -7 10 -16 10 -8 0
-12 -4 -9 -10z"/>
<path d="M3410 3179 c-23 -43 0 -99 35 -85 8 3 15 1 15 -4 0 -6 -5 -10 -10
-10 -6 0 -5 -8 2 -20 17 -26 28 -25 28 2 0 12 7 30 16 40 13 14 15 25 8 50 -8
28 -16 34 -47 39 -30 5 -40 2 -47 -12z"/>
<path d="M3615 3190 c3 -5 8 -10 11 -10 2 0 4 5 4 10 0 6 -5 10 -11 10 -5 0
-7 -4 -4 -10z"/>
<path d="M1531 3174 c0 -11 3 -14 6 -6 3 7 2 16 -1 19 -3 4 -6 -2 -5 -13z"/>
<path d="M1300 3165 c0 -8 7 -15 15 -15 8 0 15 7 15 15 0 8 -7 15 -15 15 -8 0
-15 -7 -15 -15z"/>
<path d="M1660 3151 c0 -16 5 -33 10 -36 6 -4 10 5 10 19 0 14 0 29 1 33 0 4
-4 9 -10 11 -6 2 -11 -9 -11 -27z"/>
<path d="M3179 3167 c15 -19 51 -23 51 -6 0 5 -8 9 -17 7 -10 -1 -25 2 -33 7
-13 8 -13 7 -1 -8z"/>
<path d="M855 3160 c3 -5 8 -10 11 -10 2 0 4 5 4 10 0 6 -5 10 -11 10 -5 0 -7
-4 -4 -10z"/>
<path d="M1460 3155 c0 -8 2 -15 4 -15 2 0 6 7 10 15 3 8 1 15 -4 15 -6 0 -10
-7 -10 -15z"/>
<path d="M4030 3160 c-42 -5 -46 -9 -41 -40 2 -15 75 -12 97 4 31 24 1 43 -56
36z"/>
<path d="M3540 3151 c0 -6 5 -13 10 -16 6 -3 10 1 10 9 0 9 -4 16 -10 16 -5 0
-10 -4 -10 -9z"/>
<path d="M3886 3130 c-26 -26 -27 -30 -11 -36 18 -7 54 28 55 54 0 19 -13 14
-44 -18z"/>
<path d="M1387 3144 c-13 -13 -7 -24 14 -24 11 0 19 5 17 12 -5 14 -22 21 -31
12z"/>
<path d="M1502 3138 c3 -7 20 -14 39 -16 40 -4 30 12 -14 22 -21 5 -28 3 -25
-6z"/>
<path d="M3142 3138 c-7 -7 -12 -26 -12 -44 0 -44 28 -49 70 -13 l32 29 -23
20 c-28 22 -50 25 -67 8z"/>
<path d="M1430 3110 c0 -5 5 -10 10 -10 6 0 10 5 10 10 0 6 -4 10 -10 10 -5 0
-10 -4 -10 -10z"/>
<path d="M1583 3104 c-4 -11 2 -23 18 -35 13 -11 32 -26 42 -36 21 -21 23 -3
2 37 -20 39 -53 57 -62 34z"/>
<path d="M1030 3095 c0 -16 16 -20 24 -6 3 5 -1 11 -9 15 -9 3 -15 0 -15 -9z"/>
<path d="M3820 3095 c0 -9 5 -15 11 -13 6 2 11 8 11 13 0 5 -5 11 -11 13 -6 2
-11 -4 -11 -13z"/>
<path d="M1380 3090 c0 -5 5 -10 11 -10 5 0 7 5 4 10 -3 6 -8 10 -11 10 -2 0
-4 -4 -4 -10z"/>
<path d="M3364 3085 c-7 -17 4 -37 17 -30 12 8 12 45 -1 45 -6 0 -13 -7 -16
-15z"/>
<path d="M4103 3082 c-9 -14 -13 -15 -24 -4 -21 20 -29 14 -29 -23 0 -29 4
-35 20 -35 11 0 23 7 26 15 4 8 12 15 19 15 7 0 18 6 24 14 10 12 8 17 -6 25
-15 7 -22 6 -30 -7z"/>
<path d="M816 3081 c-4 -7 -5 -15 -2 -18 9 -9 19 4 14 18 -4 11 -6 11 -12 0z"/>
<path d="M990 3080 c0 -5 5 -10 11 -10 5 0 7 5 4 10 -3 6 -8 10 -11 10 -2 0
-4 -4 -4 -10z"/>
<path d="M1500 3080 c0 -5 9 -10 21 -10 11 0 17 5 14 10 -3 6 -13 10 -21 10
-8 0 -14 -4 -14 -10z"/>
<path d="M1670 3083 c1 -19 29 -43 50 -43 19 0 20 2 10 15 -7 8 -19 15 -26 15
-8 0 -14 5 -14 10 0 6 -4 10 -10 10 -5 0 -10 -3 -10 -7z"/>
<path d="M3222 3073 c5 -25 28 -28 28 -4 0 12 -6 21 -16 21 -9 0 -14 -7 -12
-17z"/>
<path d="M1285 3070 c3 -5 8 -10 11 -10 2 0 4 5 4 10 0 6 -5 10 -11 10 -5 0
-7 -4 -4 -10z"/>
<path d="M1560 3071 c0 -5 -9 -13 -21 -16 -21 -7 -21 -7 3 -23 12 -9 26 -20
30 -26 4 -6 19 -10 34 -11 15 0 29 -6 32 -14 3 -8 1 -11 -4 -8 -5 3 -10 -9
-10 -26 0 -18 -4 -44 -7 -59 -8 -30 5 -36 33 -18 13 9 12 12 -5 26 -14 10 -16
17 -8 22 6 4 16 20 22 35 10 26 8 30 -34 59 -25 18 -45 40 -45 50 0 10 -4 18
-10 18 -5 0 -10 -4 -10 -9z"/>
<path d="M700 3060 c0 -5 5 -10 10 -10 6 0 10 5 10 10 0 6 -4 10 -10 10 -5 0
-10 -4 -10 -10z"/>
<path d="M1350 3060 c0 -5 7 -10 16 -10 8 0 12 5 9 10 -3 6 -10 10 -16 10 -5
0 -9 -4 -9 -10z"/>
<path d="M1400 3050 c0 -5 5 -10 11 -10 5 0 7 5 4 10 -3 6 -8 10 -11 10 -2 0
-4 -4 -4 -10z"/>
<path d="M1480 3050 c0 -5 5 -10 10 -10 6 0 10 5 10 10 0 6 -4 10 -10 10 -5 0
-10 -4 -10 -10z"/>
<path d="M1273 3035 c-3 -9 -3 -18 0 -21 9 -9 27 6 27 22 0 19 -19 18 -27 -1z"/>
<path d="M1430 3036 c0 -8 3 -22 6 -30 6 -15 8 -15 20 1 19 26 17 43 -6 43
-11 0 -20 -6 -20 -14z"/>
<path d="M3130 3040 c0 -5 5 -10 11 -10 5 0 7 5 4 10 -3 6 -8 10 -11 10 -2 0
-4 -4 -4 -10z"/>
<path d="M3600 3040 c0 -5 5 -10 11 -10 5 0 7 5 4 10 -3 6 -8 10 -11 10 -2 0
-4 -4 -4 -10z"/>
<path d="M826 3031 c-4 -7 -5 -15 -2 -18 9 -9 19 4 14 18 -4 11 -6 11 -12 0z"/>
<path d="M3950 3025 c0 -8 5 -15 10 -15 6 0 10 7 10 15 0 8 -4 15 -10 15 -5 0
-10 -7 -10 -15z"/>
<path d="M543 3023 c-7 -3 -13 -9 -13 -13 0 -13 38 -32 44 -22 8 13 -17 40
-31 35z"/>
<path d="M3380 3020 c0 -5 7 -10 15 -10 8 0 15 5 15 10 0 6 -7 10 -15 10 -8 0
-15 -4 -15 -10z"/>
<path d="M3860 3021 c0 -12 29 -35 36 -28 4 3 -1 13 -9 22 -17 17 -27 19 -27
6z"/>
<path d="M3214 3012 c-6 -4 -14 -19 -17 -34 -6 -22 -4 -25 12 -21 17 4 21 11
30 48 3 12 -11 17 -25 7z"/>
<path d="M3315 3011 c-3 -5 -1 -12 5 -16 16 -10 12 -28 -5 -21 -20 7 -19 -4 5
-34 22 -30 34 -21 36 26 1 35 -27 66 -41 45z"/>
<path d="M3412 3008 c-19 -19 -14 -38 16 -51 15 -6 30 -16 34 -22 12 -17 20 3
9 23 -6 11 -8 28 -4 38 5 14 3 16 -12 10 -10 -3 -21 -2 -25 4 -4 6 -10 6 -18
-2z"/>
<path d="M3725 3010 c3 -5 8 -10 11 -10 2 0 4 5 4 10 0 6 -5 10 -11 10 -5 0
-7 -4 -4 -10z"/>
<path d="M756 2995 c4 -8 10 -12 15 -9 11 6 2 24 -11 24 -5 0 -7 -7 -4 -15z"/>
<path d="M3515 3000 c3 -5 8 -10 11 -10 2 0 4 5 4 10 0 6 -5 10 -11 10 -5 0
-7 -4 -4 -10z"/>
<path d="M3590 2984 c0 -15 4 -23 11 -19 5 4 19 -1 29 -10 27 -24 50 -12 50
25 0 29 -2 30 -45 30 -42 0 -45 -2 -45 -26z"/>
<path d="M3810 2974 c0 -9 5 -14 12 -12 18 6 21 28 4 28 -9 0 -16 -7 -16 -16z"/>
<path d="M1185 2970 c-8 -13 3 -34 25 -48 18 -11 20 -10 20 13 0 14 5 25 10
25 6 0 10 3 10 8 0 10 -58 13 -65 2z"/>
<path d="M1100 2931 c0 -12 29 -23 41 -15 5 3 7 10 4 15 -8 12 -45 12 -45 0z"/>
<path d="M1576 2933 c-11 -11 -6 -23 9 -23 8 0 15 4 15 9 0 13 -16 22 -24 14z"/>
<path d="M3380 2925 c0 -8 7 -15 15 -15 8 0 15 7 15 15 0 8 -7 15 -15 15 -8 0
-15 -7 -15 -15z"/>
<path d="M1468 2913 c7 -3 16 -2 19 1 4 3 -2 6 -13 5 -11 0 -14 -3 -6 -6z"/>
<path d="M1360 2900 c0 -5 9 -10 20 -10 11 0 20 5 20 10 0 6 -9 10 -20 10 -11
0 -20 -4 -20 -10z"/>
<path d="M1015 2891 c-7 -12 12 -24 25 -16 11 7 4 25 -10 25 -5 0 -11 -4 -15
-9z"/>
<path d="M1285 2891 c-9 -16 3 -31 26 -31 14 0 19 6 17 17 -4 20 -33 29 -43
14z"/>
<path d="M3500 2881 c0 -12 5 -21 10 -21 6 0 10 6 10 14 0 8 -4 18 -10 21 -5
3 -10 -3 -10 -14z"/>
<path d="M3575 2870 c-3 -5 -1 -10 4 -10 6 0 11 5 11 10 0 6 -2 10 -4 10 -3 0
-8 -4 -11 -10z"/>
<path d="M1376 2861 c-4 -5 -2 -12 3 -15 5 -4 12 -2 15 3 4 5 2 12 -3 15 -5 4
-12 2 -15 -3z"/>
<path d="M1500 2866 c0 -2 9 -6 20 -9 11 -3 20 -1 20 4 0 5 -9 9 -20 9 -11 0
-20 -2 -20 -4z"/>
<path d="M3077 2844 c-12 -12 4 -24 33 -24 16 0 31 4 34 9 10 16 -52 30 -67
15z"/>
<path d="M3500 2830 c0 -5 5 -10 10 -10 6 0 10 5 10 10 0 6 -4 10 -10 10 -5 0
-10 -4 -10 -10z"/>
<path d="M3680 2830 c0 -5 5 -10 10 -10 6 0 10 5 10 10 0 6 -4 10 -10 10 -5 0
-10 -4 -10 -10z"/>
<path d="M1495 2820 c-3 -5 1 -10 9 -10 9 0 16 5 16 10 0 6 -4 10 -9 10 -6 0
-13 -4 -16 -10z"/>
<path d="M1661 2809 c-13 -11 -21 -23 -17 -26 4 -4 10 -2 14 4 8 13 35 -3 45
-27 3 -8 5 3 4 24 -2 46 -13 52 -46 25z"/>
<path d="M1573 2800 c-8 -12 -9 -21 -3 -25 15 -9 30 4 30 26 0 24 -12 24 -27
-1z"/>
<path d="M3545 2811 c-3 -5 -1 -12 5 -16 5 -3 10 1 10 9 0 18 -6 21 -15 7z"/>
<path d="M1540 2799 c0 -5 5 -7 10 -4 6 3 10 8 10 11 0 2 -4 4 -10 4 -5 0 -10
-5 -10 -11z"/>
<path d="M1180 2790 c-8 -5 -11 -12 -8 -16 10 -9 38 3 38 16 0 12 -10 13 -30
0z"/>
<path d="M3425 2790 c3 -5 8 -10 11 -10 2 0 4 5 4 10 0 6 -5 10 -11 10 -5 0
-7 -4 -4 -10z"/>
<path d="M3465 2790 c3 -5 8 -10 11 -10 2 0 4 5 4 10 0 6 -5 10 -11 10 -5 0
-7 -4 -4 -10z"/>
<path d="M1295 2780 c-3 -5 1 -10 10 -10 9 0 13 5 10 10 -3 6 -8 10 -10 10 -2
0 -7 -4 -10 -10z"/>
<path d="M1360 2765 c-7 -9 -11 -18 -8 -20 7 -8 38 5 38 15 0 17 -18 19 -30 5z"/>
<path d="M1105 2760 c3 -5 8 -10 11 -10 2 0 4 5 4 10 0 6 -5 10 -11 10 -5 0
-7 -4 -4 -10z"/>
<path d="M1640 2760 c0 -5 5 -10 10 -10 6 0 10 5 10 10 0 6 -4 10 -10 10 -5 0
-10 -4 -10 -10z"/>
<path d="M1745 2760 c3 -5 8 -10 11 -10 2 0 4 5 4 10 0 6 -5 10 -11 10 -5 0
-7 -4 -4 -10z"/>
<path d="M1790 2740 c0 -5 5 -10 10 -10 6 0 10 5 10 10 0 6 -4 10 -10 10 -5 0
-10 -4 -10 -10z"/>
<path d="M1646 2725 c-3 -8 -2 -15 3 -15 5 0 14 7 21 15 10 12 10 15 -3 15 -8
0 -17 -7 -21 -15z"/>
<path d="M3839 2724 c-26 -32 34 -85 64 -55 6 6 19 11 29 11 16 0 38 27 38 47
0 14 -119 11 -131 -3z"/>
<path d="M1296 2722 c-3 -6 -1 -14 5 -17 14 -9 20 -2 10 14 -6 8 -11 9 -15 3z"/>
<path d="M3477 2717 c-3 -8 -1 -20 4 -28 11 -19 34 3 26 25 -8 20 -23 21 -30
3z"/>
<path d="M3757 2723 c-4 -3 -7 -13 -7 -22 1 -13 3 -13 11 2 11 19 8 33 -4 20z"/>
<path d="M1460 2710 c0 -5 5 -10 10 -10 6 0 10 5 10 10 0 6 -4 10 -10 10 -5 0
-10 -4 -10 -10z"/>
<path d="M1770 2703 c0 -42 12 -61 35 -59 21 1 22 3 9 17 -19 21 -19 46 -1 30
8 -6 17 -8 20 -4 9 8 -24 32 -45 33 -11 0 -18 -7 -18 -17z"/>
<path d="M4150 2700 c0 -5 5 -10 10 -10 6 0 10 5 10 10 0 6 -4 10 -10 10 -5 0
-10 -4 -10 -10z"/>
<path d="M1390 2690 c0 -5 5 -10 10 -10 6 0 10 -7 10 -16 0 -17 22 -14 28 4 2
7 -3 12 -12 12 -9 0 -16 5 -16 10 0 6 -4 10 -10 10 -5 0 -10 -4 -10 -10z"/>
<path d="M1565 2686 c-18 -13 -18 -14 8 -9 15 3 24 9 21 14 -7 12 -7 12 -29
-5z"/>
<path d="M1250 2680 c0 -5 5 -10 10 -10 6 0 10 5 10 10 0 6 -4 10 -10 10 -5 0
-10 -4 -10 -10z"/>
<path d="M710 2659 c0 -5 5 -7 10 -4 6 3 10 8 10 11 0 2 -4 4 -10 4 -5 0 -10
-5 -10 -11z"/>
<path d="M3908 2659 c-49 -28 -41 -89 10 -89 16 0 33 5 40 12 19 19 15 66 -7
78 -23 12 -22 12 -43 -1z"/>
<path d="M1254 2645 c-9 -23 4 -47 23 -43 11 2 19 14 21 31 3 22 -1 27 -18 27
-11 0 -23 -7 -26 -15z"/>
<path d="M1605 2650 c3 -5 13 -10 21 -10 8 0 12 5 9 10 -3 6 -13 10 -21 10 -8
0 -12 -4 -9 -10z"/>
<path d="M3780 2645 c0 -9 5 -15 11 -13 6 2 11 8 11 13 0 5 -5 11 -11 13 -6 2
-11 -4 -11 -13z"/>
<path d="M1535 2643 c-20 -5 -45 -30 -45 -46 0 -4 5 -5 10 -2 6 3 10 -4 10
-15 0 -13 -8 -24 -20 -27 -27 -7 -25 -23 3 -23 35 0 65 40 64 83 0 20 -1 36
-1 36 -1 -1 -10 -3 -21 -6z"/>
<path d="M3394 2635 c3 -8 -2 -22 -11 -30 -8 -9 -12 -19 -8 -23 3 -4 11 1 16
11 6 9 17 17 24 17 20 0 19 26 -1 34 -23 9 -27 8 -20 -9z"/>
<path d="M677 2633 c-13 -12 -7 -23 13 -23 11 0 20 7 20 15 0 15 -21 21 -33 8z"/>
<path d="M831 2618 c-15 -24 10 -35 45 -20 32 15 30 29 -5 34 -20 3 -32 -1
-40 -14z"/>
<path d="M1765 2620 c-3 -5 -2 -10 4 -10 5 0 18 -3 28 -7 17 -6 17 -6 1 10
-19 20 -24 21 -33 7z"/>
<path d="M1870 2610 c0 -5 4 -10 9 -10 6 0 13 5 16 10 3 6 -1 10 -9 10 -9 0
-16 -4 -16 -10z"/>
<path d="M1955 2612 c-17 -11 -36 -85 -25 -96 14 -14 44 2 32 17 -12 14 -4 67
10 67 5 0 6 -4 3 -10 -3 -5 -2 -10 3 -10 8 0 22 22 22 36 0 7 -34 4 -45 -4z"/>
<path d="M1680 2605 c0 -5 5 -17 10 -25 5 -8 10 -10 10 -5 0 6 -5 17 -10 25
-5 8 -10 11 -10 5z"/>
<path d="M4390 2600 c0 -5 5 -10 11 -10 5 0 7 5 4 10 -3 6 -8 10 -11 10 -2 0
-4 -4 -4 -10z"/>
<path d="M1630 2590 c0 -5 5 -10 10 -10 6 0 10 5 10 10 0 6 -4 10 -10 10 -5 0
-10 -4 -10 -10z"/>
<path d="M3496 2585 c-8 -23 4 -45 25 -45 22 0 22 0 9 34 -11 29 -25 34 -34
11z"/>
<path d="M1740 2580 c0 -5 7 -10 15 -10 8 0 15 5 15 10 0 6 -7 10 -15 10 -8 0
-15 -4 -15 -10z"/>
<path d="M1096 2572 c-3 -6 -1 -14 5 -17 15 -10 25 3 12 16 -7 7 -13 7 -17 1z"/>
<path d="M1830 2570 c0 -5 5 -10 10 -10 6 0 10 5 10 10 0 6 -4 10 -10 10 -5 0
-10 -4 -10 -10z"/>
<path d="M1870 2570 c0 -5 5 -10 11 -10 5 0 7 5 4 10 -3 6 -8 10 -11 10 -2 0
-4 -4 -4 -10z"/>
<path d="M1605 2540 c-3 -5 -1 -10 4 -10 6 0 11 5 11 10 0 6 -2 10 -4 10 -3 0
-8 -4 -11 -10z"/>
<path d="M1437 2524 c6 -15 23 -19 23 -5 0 5 -7 11 -14 14 -10 4 -13 1 -9 -9z"/>
<path d="M1985 2529 c-4 -6 -5 -12 -2 -15 2 -3 7 2 10 11 7 17 1 20 -8 4z"/>
<path d="M3497 2509 c-18 -20 -17 -20 5 -17 12 2 24 11 26 21 5 23 -10 22 -31
-4z"/>
<path d="M3360 2510 c0 -5 5 -10 10 -10 6 0 10 5 10 10 0 6 -4 10 -10 10 -5 0
-10 -4 -10 -10z"/>
<path d="M3150 2496 c0 -8 5 -18 10 -21 6 -3 10 1 10 9 0 8 -4 18 -10 21 -5 3
-10 -1 -10 -9z"/>
<path d="M1360 2490 c0 -5 5 -10 10 -10 6 0 10 5 10 10 0 6 -4 10 -10 10 -5 0
-10 -4 -10 -10z"/>
<path d="M1930 2485 c-13 -16 -6 -35 15 -35 16 0 38 34 28 44 -11 10 -30 7
-43 -9z"/>
<path d="M1460 2479 c0 -5 5 -7 10 -4 6 3 10 8 10 11 0 2 -4 4 -10 4 -5 0 -10
-5 -10 -11z"/>
<path d="M2000 2486 c0 -2 7 -7 16 -10 8 -3 12 -2 9 4 -6 10 -25 14 -25 6z"/>
<path d="M1610 2470 c0 -5 5 -10 10 -10 6 0 10 5 10 10 0 6 -4 10 -10 10 -5 0
-10 -4 -10 -10z"/>
<path d="M1520 2460 c0 -5 5 -10 11 -10 5 0 7 5 4 10 -3 6 -8 10 -11 10 -2 0
-4 -4 -4 -10z"/>
<path d="M3770 2460 c0 -5 7 -10 16 -10 8 0 12 5 9 10 -3 6 -10 10 -16 10 -5
0 -9 -4 -9 -10z"/>
<path d="M4039 2457 c6 -8 8 -17 4 -20 -3 -4 -1 -7 5 -7 18 0 26 22 11 31 -21
13 -33 11 -20 -4z"/>
<path d="M3152 2438 c5 -15 35 -34 43 -27 3 4 3 14 -1 23 -7 18 -48 23 -42 4z"/>
<path d="M2210 2429 c0 -5 5 -7 10 -4 6 3 10 8 10 11 0 2 -4 4 -10 4 -5 0 -10
-5 -10 -11z"/>
<path d="M3090 2428 c0 -6 9 -8 20 -5 13 3 21 -1 25 -14 4 -11 11 -17 16 -14
17 11 -10 43 -36 43 -14 0 -25 -5 -25 -10z"/>
<path d="M3785 2427 c-14 -11 -17 -22 -12 -45 4 -20 2 -32 -6 -35 -7 -2 -8 -8
-4 -13 4 -5 12 -2 16 5 5 7 13 11 17 8 5 -2 19 -1 32 4 36 14 26 89 -13 89 -6
0 -19 -6 -30 -13z"/>
<path d="M310 2420 c0 -5 5 -10 10 -10 6 0 10 5 10 10 0 6 -4 10 -10 10 -5 0
-10 -4 -10 -10z"/>
<path d="M1325 2420 c3 -5 8 -10 11 -10 2 0 4 5 4 10 0 6 -5 10 -11 10 -5 0
-7 -4 -4 -10z"/>
<path d="M3250 2420 c-8 -5 -11 -12 -7 -16 4 -4 13 -2 19 4 15 15 7 24 -12 12z"/>
<path d="M3430 2404 c0 -8 5 -12 10 -9 6 3 10 10 10 16 0 5 -4 9 -10 9 -5 0
-10 -7 -10 -16z"/>
<path d="M4055 2400 c9 -30 13 -35 21 -27 3 3 -2 16 -11 29 l-17 23 7 -25z"/>
<path d="M3550 2395 c-19 -23 -1 -39 21 -19 10 9 16 21 13 25 -8 13 -20 11
-34 -6z"/>
<path d="M1856 2391 c-4 -5 -2 -12 3 -15 5 -4 12 -2 15 3 4 5 2 12 -3 15 -5 4
-12 2 -15 -3z"/>
<path d="M1675 2380 c3 -5 10 -10 16 -10 5 0 9 5 9 10 0 6 -7 10 -16 10 -8 0
-12 -4 -9 -10z"/>
<path d="M1715 2380 c-3 -5 -1 -10 4 -10 6 0 11 5 11 10 0 6 -2 10 -4 10 -3 0
-8 -4 -11 -10z"/>
<path d="M3206 2378 c-18 -56 -16 -63 14 -63 34 0 36 4 21 45 -10 31 -29 40
-35 18z"/>
<path d="M3268 2372 c-16 -7 -16 -9 1 -31 23 -30 54 -22 49 11 -3 24 -22 31
-50 20z"/>
<path d="M3490 2370 c0 -5 5 -10 10 -10 6 0 10 5 10 10 0 6 -4 10 -10 10 -5 0
-10 -4 -10 -10z"/>
<path d="M1540 2350 c11 -21 22 -25 33 -13 9 9 -12 33 -30 33 -11 0 -11 -4 -3
-20z"/>
<path d="M1940 2340 c-6 -12 -9 -29 -5 -37 3 -9 1 -19 -5 -23 -6 -4 0 -12 15
-20 23 -12 28 -12 47 7 22 23 17 46 -8 36 -12 -5 -15 0 -12 22 4 35 -16 44
-32 15z"/>
<path d="M3433 2335 c-3 -9 -3 -18 0 -21 9 -9 27 6 27 22 0 19 -19 18 -27 -1z"/>
<path d="M1595 2330 c4 -6 11 -8 16 -5 14 9 11 15 -7 15 -8 0 -12 -5 -9 -10z"/>
<path d="M770 2299 c0 -5 5 -7 10 -4 6 3 10 8 10 11 0 2 -4 4 -10 4 -5 0 -10
-5 -10 -11z"/>
<path d="M2090 2287 c0 -8 7 -17 15 -21 8 -3 15 -2 15 3 0 5 -7 14 -15 21 -12
10 -15 10 -15 -3z"/>
<path d="M3330 2292 c0 -12 19 -26 26 -19 2 2 -2 10 -11 17 -9 8 -15 8 -15 2z"/>
<path d="M4495 2291 c-8 -15 3 -31 21 -31 9 0 14 7 12 17 -4 20 -24 28 -33 14z"/>
<path d="M4677 2284 c-11 -11 3 -24 24 -24 12 0 19 5 17 13 -5 14 -31 21 -41
11z"/>
<path d="M1760 2270 c0 -5 5 -10 10 -10 6 0 10 5 10 10 0 6 -4 10 -10 10 -5 0
-10 -4 -10 -10z"/>
<path d="M3640 2270 c0 -5 5 -10 10 -10 6 0 10 5 10 10 0 6 -4 10 -10 10 -5 0
-10 -4 -10 -10z"/>
<path d="M1855 2260 c-3 -5 -1 -10 4 -10 6 0 11 5 11 10 0 6 -2 10 -4 10 -3 0
-8 -4 -11 -10z"/>
<path d="M2220 2249 c0 -6 6 -17 14 -25 19 -18 33 1 16 21 -15 18 -30 20 -30
4z"/>
<path d="M3550 2246 c0 -8 4 -17 9 -20 5 -4 7 3 4 14 -6 23 -13 26 -13 6z"/>
<path d="M4318 2239 c-43 -24 -4 -129 47 -129 54 0 74 84 29 119 -29 23 -50
26 -76 10z"/>
<path d="M770 2230 c0 -5 5 -10 10 -10 6 0 10 5 10 10 0 6 -4 10 -10 10 -5 0
-10 -4 -10 -10z"/>
<path d="M1143 2227 c-13 -5 -23 -16 -23 -24 0 -17 11 -17 34 0 26 19 17 37
-11 24z"/>
<path d="M4685 2220 c-18 -20 -18 -22 11 -80 16 -33 34 -58 41 -55 6 2 17 -3
23 -10 17 -20 32 -8 20 15 -7 13 -5 26 5 47 36 69 -49 140 -100 83z"/>
<path d="M4080 2215 c0 -8 5 -15 10 -15 6 0 10 7 10 15 0 8 -4 15 -10 15 -5 0
-10 -7 -10 -15z"/>
<path d="M1775 2210 c-3 -5 -1 -10 4 -10 6 0 11 5 11 10 0 6 -2 10 -4 10 -3 0
-8 -4 -11 -10z"/>
<path d="M2175 2210 c-3 -5 -1 -10 4 -10 6 0 11 5 11 10 0 6 -2 10 -4 10 -3 0
-8 -4 -11 -10z"/>
<path d="M1994 2186 c-3 -9 -3 -24 1 -33 6 -17 7 -17 21 2 8 10 13 24 11 29
-6 17 -27 18 -33 2z"/>
<path d="M3770 2191 c0 -5 9 -11 20 -14 24 -6 27 8 4 17 -21 8 -24 8 -24 -3z"/>
<path d="M1655 2180 c3 -5 8 -10 11 -10 2 0 4 5 4 10 0 6 -5 10 -11 10 -5 0
-7 -4 -4 -10z"/>
<path d="M1750 2180 c0 -5 5 -10 10 -10 6 0 10 5 10 10 0 6 -4 10 -10 10 -5 0
-10 -4 -10 -10z"/>
<path d="M1824 2179 c-3 -6 -2 -15 4 -21 13 -13 32 -2 32 18 0 16 -26 19 -36
3z"/>
<path d="M1870 2174 c0 -8 5 -12 10 -9 6 4 8 11 5 16 -9 14 -15 11 -15 -7z"/>
<path d="M2209 2167 c-8 -11 -22 -20 -30 -20 -11 0 -14 -8 -11 -29 4 -29 7
-31 57 -32 26 -1 30 -5 33 -34 3 -25 8 -32 20 -30 17 4 21 29 7 61 -6 14 -2
17 19 17 14 0 26 4 26 9 0 14 -54 20 -69 8 -12 -10 -13 -7 -8 20 8 43 -20 62
-44 30z"/>
<path d="M1925 2151 c5 -25 3 -31 -10 -31 -11 0 -15 -7 -13 -22 5 -33 25 -33
33 1 3 17 12 29 18 28 7 -1 12 9 12 23 0 19 -6 26 -23 28 -22 3 -23 1 -17 -27z"/>
<path d="M4085 2170 c-3 -5 -1 -10 4 -10 6 0 11 5 11 10 0 6 -2 10 -4 10 -3 0
-8 -4 -11 -10z"/>
<path d="M3494 2155 c-9 -22 1 -29 15 -11 8 10 9 16 1 21 -5 3 -13 -1 -16 -10z"/>
<path d="M3580 2160 c0 -5 5 -10 10 -10 6 0 10 5 10 10 0 6 -4 10 -10 10 -5 0
-10 -4 -10 -10z"/>
<path d="M2097 2143 c-4 -3 -7 -15 -7 -25 0 -22 23 -24 41 -2 10 13 10 17 -2
25 -17 11 -24 11 -32 2z"/>
<path d="M1440 2130 c-13 -8 -12 -10 3 -10 9 0 17 5 17 10 0 12 -1 12 -20 0z"/>
<path d="M2411 2121 c-6 -10 -8 -21 -5 -24 3 -3 -4 -8 -16 -12 -15 -5 -20 -13
-18 -28 4 -29 30 -28 43 1 5 12 18 22 27 22 21 0 24 30 6 48 -17 17 -26 15
-37 -7z"/>
<path d="M5180 2105 c0 -19 -4 -35 -10 -35 -5 0 -10 -4 -10 -10 0 -5 9 -10 20
-10 11 0 27 -11 36 -25 20 -30 40 -32 54 -5 15 28 5 53 -36 89 -45 40 -54 39
-54 -4z"/>
<path d="M1806 2121 c-4 -5 -2 -12 3 -15 5 -4 12 -2 15 3 4 5 2 12 -3 15 -5 4
-12 2 -15 -3z"/>
<path d="M2481 2108 c-1 -28 12 -37 24 -18 3 6 2 10 -4 10 -5 0 -12 8 -14 18
-3 10 -5 6 -6 -10z"/>
<path d="M4267 2124 c-14 -14 -7 -25 13 -22 12 2 21 8 21 13 0 12 -24 18 -34
9z"/>
<path d="M1685 2109 c-10 -16 39 -64 56 -54 9 6 8 10 -7 15 -10 4 -19 15 -19
25 0 22 -20 31 -30 14z"/>
<path d="M4025 2110 c-3 -6 1 -13 10 -16 21 -9 26 -2 10 13 -9 8 -16 9 -20 3z"/>
<path d="M1857 2103 c-13 -12 -7 -33 8 -33 8 0 15 9 15 20 0 20 -11 26 -23 13z"/>
<path d="M3518 2105 c-2 -2 -2 -20 0 -39 3 -23 11 -37 27 -44 27 -12 35 -7 35
24 0 21 -51 70 -62 59z"/>
<path d="M3870 2090 c0 -5 5 -10 10 -10 6 0 10 5 10 10 0 6 -4 10 -10 10 -5 0
-10 -4 -10 -10z"/>
<path d="M2140 2079 c0 -5 5 -7 10 -4 6 3 10 8 10 11 0 2 -4 4 -10 4 -5 0 -10
-5 -10 -11z"/>
<path d="M2005 2070 c-3 -5 1 -10 9 -10 9 0 16 5 16 10 0 6 -4 10 -9 10 -6 0
-13 -4 -16 -10z"/>
<path d="M4386 2073 c-11 -11 -7 -43 6 -43 6 0 8 3 5 7 -4 3 -2 12 4 19 10 13
-3 29 -15 17z"/>
<path d="M4705 2060 c3 -5 8 -10 11 -10 2 0 4 5 4 10 0 6 -5 10 -11 10 -5 0
-7 -4 -4 -10z"/>
<path d="M2630 2043 c0 -22 17 -49 25 -41 8 8 -5 58 -16 58 -5 0 -9 -8 -9 -17z"/>
<path d="M3400 2040 c0 -5 5 -10 10 -10 6 0 10 5 10 10 0 6 -4 10 -10 10 -5 0
-10 -4 -10 -10z"/>
<path d="M3940 2040 c0 -5 6 -10 14 -10 8 0 18 5 21 10 3 6 -3 10 -14 10 -12
0 -21 -4 -21 -10z"/>
<path d="M1700 2020 c-22 -22 -27 -60 -7 -60 25 1 56 37 50 59 -7 26 -17 27
-43 1z"/>
<path d="M2325 2030 c-3 -6 1 -7 9 -4 18 7 21 14 7 14 -6 0 -13 -4 -16 -10z"/>
<path d="M2485 2030 c-11 -17 5 -32 21 -19 7 6 11 15 8 20 -7 12 -21 11 -29
-1z"/>
<path d="M2380 1992 c0 -10 6 -27 14 -38 11 -14 17 -16 26 -7 10 9 8 17 -6 37
-22 30 -34 33 -34 8z"/>
<path d="M2593 1997 c5 -12 1 -17 -13 -17 -22 0 -27 -15 -9 -25 6 -4 18 1 28
12 16 17 16 20 3 33 -14 13 -15 12 -9 -3z"/>
<path d="M1525 1990 c3 -5 10 -10 16 -10 5 0 9 5 9 10 0 6 -7 10 -16 10 -8 0
-12 -4 -9 -10z"/>
<path d="M4580 1982 c0 -26 11 -34 27 -21 20 17 16 39 -7 39 -13 0 -20 -7 -20
-18z"/>
<path d="M2215 1970 c3 -5 8 -10 11 -10 2 0 4 5 4 10 0 6 -5 10 -11 10 -5 0
-7 -4 -4 -10z"/>
<path d="M4713 1969 c-26 -26 -7 -88 40 -127 21 -19 27 -32 27 -64 0 -53 58
-128 100 -128 44 0 56 23 40 73 -7 23 -12 75 -11 115 2 68 0 74 -28 102 -21
22 -39 30 -64 30 -19 0 -47 3 -63 6 -17 3 -34 0 -41 -7z"/>
<path d="M2247 1963 c-4 -3 -7 -17 -7 -31 0 -21 2 -22 15 -12 8 7 15 21 15 31
0 19 -11 25 -23 12z"/>
<path d="M2665 1960 c-3 -5 -1 -10 4 -10 6 0 11 5 11 10 0 6 -2 10 -4 10 -3 0
-8 -4 -11 -10z"/>
<path d="M3240 1950 c-7 -12 -16 -17 -27 -13 -11 4 -14 3 -9 -6 5 -7 14 -10
22 -7 8 3 14 -1 14 -8 0 -7 9 -21 20 -31 19 -18 20 -17 20 4 0 14 9 25 26 31
27 11 28 37 1 32 -8 -1 -18 2 -22 8 -10 16 -33 12 -45 -10z"/>
<path d="M4630 1960 c0 -5 5 -10 10 -10 6 0 10 5 10 10 0 6 -4 10 -10 10 -5 0
-10 -4 -10 -10z"/>
<path d="M1510 1946 c0 -12 -44 -32 -63 -28 -7 2 0 -43 10 -60 8 -15 34 -8 56
15 13 12 31 21 41 19 12 -3 17 1 14 10 -3 7 -13 12 -21 12 -13 -1 -15 4 -11
22 5 18 2 24 -10 24 -9 0 -16 -6 -16 -14z"/>
<path d="M1597 1953 c-10 -10 -8 -43 2 -43 9 0 21 24 21 41 0 11 -14 12 -23 2z"/>
<path d="M2150 1951 c0 -5 5 -13 10 -16 6 -3 10 -2 10 4 0 5 -4 13 -10 16 -5
3 -10 2 -10 -4z"/>
<path d="M2596 1936 c-18 -29 -6 -42 22 -25 12 7 17 19 14 31 -6 25 -17 23
-36 -6z"/>
<path d="M3480 1949 c0 -5 5 -7 10 -4 6 3 10 8 10 11 0 2 -4 4 -10 4 -5 0 -10
-5 -10 -11z"/>
<path d="M3420 1935 c0 -9 5 -15 11 -13 6 2 11 8 11 13 0 5 -5 11 -11 13 -6 2
-11 -4 -11 -13z"/>
<path d="M1700 1917 c0 -13 -5 -28 -11 -34 -17 -17 -7 -77 14 -81 20 -4 56 66
57 111 0 23 -4 27 -30 27 -25 0 -30 -4 -30 -23z"/>
<path d="M1926 1923 c-11 -11 -6 -23 9 -23 8 0 15 4 15 9 0 13 -16 22 -24 14z"/>
<path d="M2010 1910 c0 -5 5 -10 10 -10 6 0 10 5 10 10 0 6 -4 10 -10 10 -5 0
-10 -4 -10 -10z"/>
<path d="M2410 1910 c0 -5 5 -10 10 -10 6 0 10 5 10 10 0 6 -4 10 -10 10 -5 0
-10 -4 -10 -10z"/>
<path d="M2376 1902 c-3 -6 -1 -14 5 -17 15 -10 25 3 12 16 -7 7 -13 7 -17 1z"/>
<path d="M3302 1898 c-15 -15 -16 -51 0 -46 6 2 16 12 22 21 14 22 -4 43 -22
25z"/>
<path d="M1775 1891 c-7 -12 12 -24 25 -16 11 7 4 25 -10 25 -5 0 -11 -4 -15
-9z"/>
<path d="M2571 1887 c-9 -11 -8 -17 4 -27 12 -10 16 -9 21 5 9 23 -10 40 -25
22z"/>
<path d="M1898 1879 c-10 -5 -18 -19 -18 -29 0 -21 24 -26 48 -11 15 9 13 43
-3 47 -5 2 -18 -1 -27 -7z"/>
<path d="M2445 1879 c-4 -6 -4 -13 -1 -16 8 -8 36 5 36 17 0 13 -27 13 -35 -1z"/>
<path d="M3380 1879 c0 -5 5 -7 10 -4 6 3 10 8 10 11 0 2 -4 4 -10 4 -5 0 -10
-5 -10 -11z"/>
<path d="M3490 1870 c0 -5 5 -10 10 -10 6 0 10 5 10 10 0 6 -4 10 -10 10 -5 0
-10 -4 -10 -10z"/>
<path d="M3710 1869 c0 -5 5 -7 10 -4 6 3 10 8 10 11 0 2 -4 4 -10 4 -5 0 -10
-5 -10 -11z"/>
<path d="M2245 1860 c3 -5 13 -10 21 -10 8 0 14 5 14 10 0 6 -9 10 -21 10 -11
0 -17 -4 -14 -10z"/>
<path d="M2320 1850 c-8 -5 -11 -10 -7 -10 4 0 3 -10 -3 -22 -10 -22 -10 -22
4 -4 8 10 19 15 24 12 8 -5 22 14 22 30 0 7 -25 4 -40 -6z"/>
<path d="M2526 1844 c-9 -24 -8 -25 14 -12 23 15 26 28 6 28 -8 0 -17 -7 -20
-16z"/>
<path d="M4220 1844 c0 -9 7 -14 17 -12 25 5 28 28 4 28 -12 0 -21 -6 -21 -16z"/>
<path d="M5041 1846 c-19 -23 -4 -56 25 -56 28 0 42 25 27 49 -14 22 -37 25
-52 7z"/>
<path d="M2161 1844 c0 -7 -11 -14 -23 -18 -22 -5 -22 -6 -6 -23 22 -22 42 -6
35 28 -2 13 -5 19 -6 13z"/>
<path d="M4000 1835 c0 -8 5 -15 10 -15 6 0 10 7 10 15 0 8 -4 15 -10 15 -5 0
-10 -7 -10 -15z"/>
<path d="M1500 1830 c0 -5 4 -10 9 -10 6 0 13 5 16 10 3 6 -1 10 -9 10 -9 0
-16 -4 -16 -10z"/>
<path d="M2573 1824 c-7 -19 2 -28 22 -21 19 8 19 23 0 31 -9 3 -18 -1 -22
-10z"/>
<path d="M4580 1830 c0 -5 5 -10 10 -10 6 0 10 5 10 10 0 6 -4 10 -10 10 -5 0
-10 -4 -10 -10z"/>
<path d="M5400 1830 c0 -5 5 -10 10 -10 6 0 10 5 10 10 0 6 -4 10 -10 10 -5 0
-10 -4 -10 -10z"/>
<path d="M1924 1818 c-4 -6 0 -17 10 -23 9 -7 14 -19 10 -29 -8 -20 3 -21 22
-2 20 20 18 31 -10 50 -18 11 -27 13 -32 4z"/>
<path d="M2000 1826 c0 -2 7 -6 15 -10 8 -3 15 -1 15 4 0 6 -7 10 -15 10 -8 0
-15 -2 -15 -4z"/>
<path d="M3355 1819 c-10 -15 3 -25 16 -12 7 7 7 13 1 17 -6 3 -14 1 -17 -5z"/>
<path d="M2044 1805 c-4 -8 2 -27 11 -42 l18 -27 18 23 c14 17 16 27 9 42 -13
23 -48 25 -56 4z"/>
<path d="M2620 1810 c0 -5 5 -10 10 -10 6 0 10 5 10 10 0 6 -4 10 -10 10 -5 0
-10 -4 -10 -10z"/>
<path d="M2230 1800 c0 -5 5 -10 10 -10 6 0 10 5 10 10 0 6 -4 10 -10 10 -5 0
-10 -4 -10 -10z"/>
<path d="M2435 1801 c-3 -5 -1 -12 5 -16 12 -7 30 2 30 16 0 12 -27 12 -35 0z"/>
<path d="M2495 1799 c-11 -17 1 -21 15 -4 8 9 8 15 2 15 -6 0 -14 -5 -17 -11z"/>
<path d="M3280 1795 c-10 -12 -10 -21 -1 -41 6 -14 11 -34 11 -44 0 -11 7 -20
15 -20 15 0 19 10 15 44 -1 10 4 23 12 27 10 7 9 9 -4 9 -10 0 -18 6 -18 14 0
22 -16 28 -30 11z"/>
<path d="M2277 1794 c-4 -4 -7 -14 -7 -23 0 -11 3 -12 11 -4 6 6 10 16 7 23
-2 6 -7 8 -11 4z"/>
<path d="M3172 1788 c2 -6 10 -14 16 -16 7 -2 10 2 6 12 -7 18 -28 22 -22 4z"/>
<path d="M4014 1786 c-4 -10 -2 -22 4 -28 8 -8 13 -7 18 6 4 10 2 22 -4 28 -8
8 -13 7 -18 -6z"/>
<path d="M1627 1783 c-12 -11 -8 -23 8 -23 8 0 15 7 15 15 0 16 -12 20 -23 8z"/>
<path d="M2348 1783 c7 -3 16 -2 19 1 4 3 -2 6 -13 5 -11 0 -14 -3 -6 -6z"/>
<path d="M2201 1766 c-20 -24 -9 -51 19 -51 21 0 25 5 25 30 0 34 -24 45 -44
21z"/>
<path d="M3405 1770 c3 -5 11 -10 16 -10 6 0 7 5 4 10 -3 6 -11 10 -16 10 -6
0 -7 -4 -4 -10z"/>
<path d="M2625 1759 c-4 -6 -5 -13 -2 -16 7 -7 27 6 27 18 0 12 -17 12 -25 -2z"/>
<path d="M3694 1759 c-10 -17 13 -36 27 -22 12 12 4 33 -11 33 -5 0 -12 -5
-16 -11z"/>
<path d="M1770 1747 c0 -7 9 -18 19 -24 16 -10 19 -9 23 11 4 17 0 22 -19 24
-13 1 -23 -4 -23 -11z"/>
<path d="M2300 1751 c0 -5 5 -13 10 -16 6 -3 10 -2 10 4 0 5 -4 13 -10 16 -5
3 -10 2 -10 -4z"/>
<path d="M5210 1745 c0 -9 5 -15 11 -13 6 2 11 8 11 13 0 5 -5 11 -11 13 -6 2
-11 -4 -11 -13z"/>
<path d="M3954 1735 c-18 -13 -18 -15 -2 -31 18 -18 48 -13 48 9 0 26 -25 38
-46 22z"/>
<path d="M1892 1724 c1 -9 9 -19 16 -22 9 -3 13 2 10 14 -1 9 -9 19 -16 22 -9
3 -13 -2 -10 -14z"/>
<path d="M4450 1726 c0 -17 14 -29 23 -20 8 8 -3 34 -14 34 -5 0 -9 -6 -9 -14z"/>
<path d="M3546 1722 c-3 -6 -1 -14 5 -17 15 -10 25 3 12 16 -7 7 -13 7 -17 1z"/>
<path d="M3606 1723 c-12 -12 -6 -33 9 -33 8 0 15 6 15 14 0 17 -14 28 -24 19z"/>
<path d="M1940 1704 c0 -14 3 -14 15 -4 8 7 15 14 15 16 0 2 -7 4 -15 4 -8 0
-15 -7 -15 -16z"/>
<path d="M2590 1710 c0 -5 5 -10 10 -10 6 0 10 5 10 10 0 6 -4 10 -10 10 -5 0
-10 -4 -10 -10z"/>
<path d="M1562 1698 c-7 -7 -12 -20 -12 -31 0 -13 6 -18 23 -15 16 2 22 10 22
27 0 28 -15 37 -33 19z"/>
<path d="M4320 1680 c-11 -11 -24 -20 -30 -20 -15 0 -12 -17 5 -24 8 -3 15
-14 15 -25 0 -12 10 -23 28 -29 25 -9 28 -14 24 -45 -4 -39 18 -91 47 -107 49
-26 132 5 152 57 6 16 15 36 20 45 7 14 0 27 -32 60 -36 37 -45 42 -90 42 -38
1 -49 5 -49 17 0 20 -31 49 -53 49 -9 0 -26 -9 -37 -20z"/>
<path d="M1630 1679 c0 -5 5 -7 10 -4 6 3 10 8 10 11 0 2 -4 4 -10 4 -5 0 -10
-5 -10 -11z"/>
<path d="M2600 1665 c0 -8 9 -15 20 -15 11 0 20 7 20 15 0 8 -9 15 -20 15 -11
0 -20 -7 -20 -15z"/>
<path d="M3219 1668 c-4 -44 17 -66 41 -42 11 11 12 19 4 32 -14 21 -44 28
-45 10z"/>
<path d="M1764 1659 c-8 -14 18 -31 30 -19 9 9 0 30 -14 30 -5 0 -12 -5 -16
-11z"/>
<path d="M2965 1640 c-8 -13 -1 -24 14 -19 6 3 7 10 2 18 -6 10 -10 10 -16 1z"/>
<path d="M2590 1630 c0 -5 5 -10 10 -10 6 0 10 5 10 10 0 6 -4 10 -10 10 -5 0
-10 -4 -10 -10z"/>
<path d="M3440 1630 c0 -5 5 -10 10 -10 6 0 10 5 10 10 0 6 -4 10 -10 10 -5 0
-10 -4 -10 -10z"/>
<path d="M3550 1630 c0 -5 5 -10 11 -10 5 0 7 5 4 10 -3 6 -8 10 -11 10 -2 0
-4 -4 -4 -10z"/>
<path d="M1824 1619 c-10 -17 13 -36 27 -22 12 12 4 33 -11 33 -5 0 -12 -5
-16 -11z"/>
<path d="M2655 1594 c-19 -20 -19 -29 1 -49 23 -22 38 -14 42 22 4 36 -19 50
-43 27z"/>
<path d="M4672 1599 c2 -7 10 -15 17 -17 8 -3 12 1 9 9 -2 7 -10 15 -17 17 -8
3 -12 -1 -9 -9z"/>
<path d="M2490 1590 c0 -5 5 -10 10 -10 6 0 10 5 10 10 0 6 -4 10 -10 10 -5 0
-10 -4 -10 -10z"/>
<path d="M1535 1580 c-3 -5 -1 -10 4 -10 6 0 11 5 11 10 0 6 -2 10 -4 10 -3 0
-8 -4 -11 -10z"/>
<path d="M2100 1579 c0 -5 5 -7 10 -4 6 3 10 8 10 11 0 2 -4 4 -10 4 -5 0 -10
-5 -10 -11z"/>
<path d="M2240 1569 c0 -24 23 -21 28 4 2 10 -3 17 -12 17 -10 0 -16 -9 -16
-21z"/>
<path d="M3140 1580 c0 -5 5 -10 10 -10 6 0 10 5 10 10 0 6 -4 10 -10 10 -5 0
-10 -4 -10 -10z"/>
<path d="M4950 1575 c-8 -10 -9 -19 0 -34 12 -24 21 -26 38 -9 17 17 15 36 -7
47 -14 8 -22 7 -31 -4z"/>
<path d="M2043 1565 c-3 -9 -3 -18 0 -22 10 -10 37 6 37 22 0 20 -29 20 -37 0z"/>
<path d="M2730 1572 c0 -5 6 -16 13 -27 10 -13 16 -15 21 -6 4 6 2 18 -4 26
-13 16 -30 20 -30 7z"/>
<path d="M3364 1565 c-4 -9 -1 -27 6 -39 9 -17 9 -29 1 -43 -13 -26 -2 -38 15
-15 10 14 15 15 25 5 7 -7 20 -13 29 -13 10 1 7 8 -12 24 -16 15 -28 36 -30
57 -3 36 -24 50 -34 24z"/>
<path d="M3610 1570 c0 -5 5 -10 10 -10 6 0 10 5 10 10 0 6 -4 10 -10 10 -5 0
-10 -4 -10 -10z"/>
<path d="M4604 1555 c-8 -19 3 -35 25 -35 27 0 33 12 14 32 -20 22 -32 23 -39
3z"/>
<path d="M1305 1549 c-10 -15 3 -25 16 -12 7 7 7 13 1 17 -6 3 -14 1 -17 -5z"/>
<path d="M3021 1521 c-11 -37 -2 -59 19 -46 6 4 9 17 6 30 -4 17 -2 22 11 21
26 -2 26 21 0 26 -21 4 -26 -1 -36 -31z"/>
<path d="M3217 1542 c-23 -25 -22 -27 13 -52 25 -18 34 -19 45 -10 18 15 19
52 3 68 -17 17 -42 15 -61 -6z"/>
<path d="M1405 1541 c-7 -12 12 -24 25 -16 11 7 4 25 -10 25 -5 0 -11 -4 -15
-9z"/>
<path d="M3766 1534 c-4 -9 -4 -19 -2 -21 8 -8 26 8 26 23 0 19 -16 18 -24 -2z"/>
<path d="M4762 1534 c4 -21 22 -23 26 -1 2 10 -3 17 -13 17 -10 0 -15 -6 -13
-16z"/>
<path d="M1467 1516 c-21 -22 -22 -36 -2 -36 17 0 29 22 23 41 -3 8 -9 6 -21
-5z"/>
<path d="M4135 1520 c4 -6 11 -8 16 -5 14 9 11 15 -7 15 -8 0 -12 -5 -9 -10z"/>
<path d="M3315 1510 c-3 -5 -1 -10 4 -10 6 0 11 5 11 10 0 6 -2 10 -4 10 -3 0
-8 -4 -11 -10z"/>
<path d="M4985 1511 c-8 -15 3 -31 21 -31 9 0 14 7 12 17 -4 20 -24 28 -33 14z"/>
<path d="M1682 1498 c-18 -18 -15 -36 7 -48 28 -14 44 -12 37 5 -3 9 0 15 9
15 21 0 19 16 -2 24 -10 3 -23 8 -28 11 -6 3 -16 0 -23 -7z"/>
<path d="M4906 1494 c-35 -35 -2 -131 42 -122 14 3 16 13 13 58 -4 75 -23 97
-55 64z"/>
<path d="M1970 1460 c0 -46 12 -51 36 -15 19 30 12 55 -16 55 -17 0 -20 -6
-20 -40z"/>
<path d="M2665 1490 c-3 -5 1 -10 9 -10 9 0 16 5 16 10 0 6 -4 10 -9 10 -6 0
-13 -4 -16 -10z"/>
<path d="M3067 1493 c-4 -3 -7 -11 -7 -17 0 -6 5 -5 12 2 6 6 9 14 7 17 -3 3
-9 2 -12 -2z"/>
<path d="M2710 1480 c0 -5 5 -10 11 -10 5 0 7 5 4 10 -3 6 -8 10 -11 10 -2 0
-4 -4 -4 -10z"/>
<path d="M2943 1475 c-9 -10 -10 -16 -2 -21 15 -9 36 13 24 25 -6 6 -15 4 -22
-4z"/>
<path d="M3306 1483 c-12 -12 -6 -33 9 -33 8 0 15 6 15 14 0 17 -14 28 -24 19z"/>
<path d="M5050 1470 c0 -11 5 -20 10 -20 6 0 10 9 10 20 0 11 -4 20 -10 20 -5
0 -10 -9 -10 -20z"/>
<path d="M1814 1465 c-7 -17 4 -37 17 -30 12 8 12 45 -1 45 -6 0 -13 -7 -16
-15z"/>
<path d="M2441 1474 c-1 -6 7 -18 17 -27 14 -13 21 -14 30 -5 19 19 14 31 -12
24 -15 -4 -26 -1 -29 7 -3 7 -6 7 -6 1z"/>
<path d="M2905 1450 c3 -5 8 -10 11 -10 2 0 4 5 4 10 0 6 -5 10 -11 10 -5 0
-7 -4 -4 -10z"/>
<path d="M3215 1436 c-10 -14 -15 -32 -12 -39 3 -7 -4 -24 -14 -38 -21 -28
-23 -44 -9 -86 11 -32 53 -58 73 -47 64 36 78 106 30 144 -19 15 -27 31 -28
52 0 40 -19 46 -40 14z"/>
<path d="M2630 1430 c0 -6 7 -10 15 -10 8 0 15 2 15 4 0 2 -7 6 -15 10 -8 3
-15 1 -15 -4z"/>
<path d="M2891 1404 c0 -11 3 -14 6 -6 3 7 2 16 -1 19 -3 4 -6 -2 -5 -13z"/>
<path d="M3480 1400 c0 -13 5 -20 13 -17 6 2 12 10 12 17 0 7 -6 15 -12 18 -8
2 -13 -5 -13 -18z"/>
<path d="M1650 1391 c0 -17 5 -22 22 -19 12 2 24 9 26 17 3 9 0 12 -10 8 -9
-3 -21 0 -27 6 -8 8 -11 5 -11 -12z"/>
<path d="M2115 1401 c-6 -11 9 -23 19 -14 9 9 7 23 -3 23 -6 0 -12 -4 -16 -9z"/>
<path d="M2414 1385 c-4 -9 -2 -21 4 -27 15 -15 44 -1 40 19 -4 23 -36 29 -44
8z"/>
<path d="M2588 1386 c-23 -17 -23 -22 3 -29 13 -3 22 0 26 9 9 23 -9 35 -29
20z"/>
<path d="M5055 1390 c3 -5 8 -10 11 -10 2 0 4 5 4 10 0 6 -5 10 -11 10 -5 0
-7 -4 -4 -10z"/>
<path d="M1785 1380 c-3 -5 -1 -10 4 -10 6 0 11 5 11 10 0 6 -2 10 -4 10 -3 0
-8 -4 -11 -10z"/>
<path d="M2275 1380 c3 -5 8 -10 11 -10 2 0 4 5 4 10 0 6 -5 10 -11 10 -5 0
-7 -4 -4 -10z"/>
<path d="M2850 1361 c0 -31 24 -59 35 -41 3 6 4 24 0 40 -9 39 -35 40 -35 1z"/>
<path d="M3720 1380 c0 -5 5 -10 10 -10 6 0 10 5 10 10 0 6 -4 10 -10 10 -5 0
-10 -4 -10 -10z"/>
<path d="M4070 1371 c0 -22 15 -35 30 -26 7 4 7 13 0 26 -14 25 -30 25 -30 0z"/>
<path d="M2230 1350 c0 -11 4 -20 9 -20 5 0 7 9 4 20 -3 11 -7 20 -9 20 -2 0
-4 -9 -4 -20z"/>
<path d="M3560 1360 c0 -5 5 -10 10 -10 6 0 10 5 10 10 0 6 -4 10 -10 10 -5 0
-10 -4 -10 -10z"/>
<path d="M1840 1339 c-8 -14 -9 -24 -2 -31 14 -14 32 -1 32 22 0 28 -17 33
-30 9z"/>
<path d="M2119 1358 c-14 -63 3 -107 36 -95 16 7 49 77 39 86 -4 3 -9 0 -11
-6 -4 -10 -10 -9 -26 2 -19 14 -36 19 -38 13z"/>
<path d="M2474 1345 c-13 -34 28 -49 46 -16 14 28 13 31 -15 31 -14 0 -28 -7
-31 -15z"/>
<path d="M2696 1341 c-3 -5 1 -14 9 -21 12 -10 15 -10 15 3 0 19 -16 31 -24
18z"/>
<path d="M1980 1315 c0 -8 5 -15 10 -15 6 0 10 7 10 15 0 8 -4 15 -10 15 -5 0
-10 -7 -10 -15z"/>
<path d="M2627 1323 c-13 -12 -7 -23 13 -23 11 0 20 7 20 15 0 15 -21 21 -33
8z"/>
<path d="M3595 1321 c-3 -5 -1 -12 5 -16 5 -3 10 1 10 9 0 18 -6 21 -15 7z"/>
<path d="M4970 1319 c0 -5 5 -7 10 -4 6 3 10 8 10 11 0 2 -4 4 -10 4 -5 0 -10
-5 -10 -11z"/>
<path d="M3340 1304 c0 -8 5 -12 10 -9 6 4 8 11 5 16 -9 14 -15 11 -15 -7z"/>
<path d="M4330 1311 c0 -6 5 -13 10 -16 6 -3 10 1 10 9 0 9 -4 16 -10 16 -5 0
-10 -4 -10 -9z"/>
<path d="M2926 1291 c-4 -5 -2 -12 3 -15 5 -4 12 -2 15 3 4 5 2 12 -3 15 -5 4
-12 2 -15 -3z"/>
<path d="M3704 1276 c-16 -42 24 -82 53 -54 14 14 15 22 5 43 -13 27 -49 34
-58 11z"/>
<path d="M2615 1273 c-32 -8 -45 -23 -45 -53 0 -15 6 -32 13 -37 18 -15 63
-21 65 -9 1 6 3 32 4 59 3 47 2 49 -37 40z"/>
<path d="M2840 1276 c0 -2 7 -6 15 -10 8 -3 15 -1 15 4 0 6 -7 10 -15 10 -8 0
-15 -2 -15 -4z"/>
<path d="M2502 1253 c5 -25 28 -28 28 -4 0 12 -6 21 -16 21 -9 0 -14 -7 -12
-17z"/>
<path d="M2360 1244 c0 -17 22 -14 28 4 2 7 -3 12 -12 12 -9 0 -16 -7 -16 -16z"/>
<path d="M3067 1253 c-12 -11 -8 -23 8 -23 8 0 15 7 15 15 0 16 -12 20 -23 8z"/>
<path d="M1917 1244 c-4 -4 -7 -18 -7 -31 0 -26 27 -32 37 -7 6 17 -19 49 -30
38z"/>
<path d="M2940 1230 c0 -5 5 -10 10 -10 6 0 10 -7 10 -15 0 -8 5 -15 10 -15
15 0 12 19 -4 36 -17 16 -26 18 -26 4z"/>
<path d="M3554 1227 c-8 -21 1 -47 16 -47 19 0 23 31 7 48 -15 14 -17 14 -23
-1z"/>
<path d="M1567 1216 c-3 -8 -3 -17 0 -20 7 -7 33 13 33 25 0 15 -27 10 -33 -5z"/>
<path d="M2160 1199 c0 -17 20 -49 30 -49 14 0 12 34 -2 48 -15 15 -28 15 -28
1z"/>
<path d="M2290 1196 c0 -19 48 -68 60 -61 17 10 11 36 -12 56 -27 22 -48 24
-48 5z"/>
<path d="M4940 1199 c-55 -22 -54 -67 2 -108 49 -36 66 -38 96 -11 28 26 28
69 1 104 -22 28 -54 33 -99 15z"/>
<path d="M5062 1198 c6 -18 28 -21 28 -4 0 9 -7 16 -16 16 -9 0 -14 -5 -12
-12z"/>
<path d="M3135 1190 c-3 -5 1 -10 10 -10 9 0 13 5 10 10 -3 6 -8 10 -10 10 -2
0 -7 -4 -10 -10z"/>
<path d="M3170 1179 c0 -5 5 -7 10 -4 6 3 10 8 10 11 0 2 -4 4 -10 4 -5 0 -10
-5 -10 -11z"/>
<path d="M2484 1166 c-11 -29 1 -51 26 -51 31 0 40 33 14 52 -23 17 -33 16
-40 -1z"/>
<path d="M3050 1166 c-15 -19 -5 -36 21 -36 22 0 25 22 5 39 -10 9 -16 8 -26
-3z"/>
<path d="M1420 1130 c-12 -23 -6 -40 15 -40 17 0 38 36 30 50 -10 17 -34 11
-45 -10z"/>
<path d="M3200 1106 c0 -18 17 -29 30 -21 8 5 7 11 -1 21 -15 18 -29 18 -29 0z"/>
<path d="M3747 1113 c-11 -10 9 -51 34 -72 38 -29 79 -23 79 13 0 13 -7 29
-15 36 -15 13 -91 31 -98 23z"/>
<path d="M2355 1100 c3 -5 8 -10 11 -10 2 0 4 5 4 10 0 6 -5 10 -11 10 -5 0
-7 -4 -4 -10z"/>
<path d="M1670 1065 c-9 -11 -10 -19 -2 -27 14 -14 32 -1 32 23 0 23 -13 25
-30 4z"/>
<path d="M3160 1070 c0 -5 7 -10 16 -10 8 0 12 5 9 10 -3 6 -10 10 -16 10 -5
0 -9 -4 -9 -10z"/>
<path d="M1847 1064 c-8 -8 1 -24 14 -24 5 0 9 7 9 15 0 15 -12 20 -23 9z"/>
<path d="M2929 1044 c-7 -20 -6 -32 6 -50 8 -13 19 -24 23 -24 16 0 32 25 32
50 0 51 -44 68 -61 24z"/>
<path d="M2656 1031 c-4 -5 -2 -12 3 -15 5 -4 12 -2 15 3 4 5 2 12 -3 15 -5 4
-12 2 -15 -3z"/>
<path d="M3701 1031 c-15 -10 -8 -41 9 -41 15 0 25 29 14 40 -5 5 -15 5 -23 1z"/>
<path d="M3184 1016 c-10 -25 37 -96 63 -96 20 0 16 54 -8 84 -23 29 -47 34
-55 12z"/>
<path d="M5090 1007 c0 -7 9 -18 19 -24 11 -7 21 -25 23 -40 2 -20 9 -29 26
-31 33 -5 32 45 -2 57 -13 5 -26 19 -29 30 -6 22 -37 29 -37 8z"/>
<path d="M1600 974 c0 -17 22 -14 28 4 2 7 -3 12 -12 12 -9 0 -16 -7 -16 -16z"/>
<path d="M2470 970 c0 -5 5 -10 11 -10 5 0 7 5 4 10 -3 6 -8 10 -11 10 -2 0
-4 -4 -4 -10z"/>
<path d="M2530 955 c0 -17 2 -18 24 -9 18 7 12 24 -10 24 -8 0 -14 -7 -14 -15z"/>
<path d="M4218 964 c-9 -8 22 -65 32 -59 4 3 6 14 3 25 -6 22 -27 43 -35 34z"/>
<path d="M2291 936 c-10 -12 -8 -19 8 -35 12 -12 28 -21 37 -21 22 0 14 39
-12 57 -18 12 -23 11 -33 -1z"/>
<path d="M4996 901 c-4 -5 -2 -12 3 -15 5 -4 12 -2 15 3 4 5 2 12 -3 15 -5 4
-12 2 -15 -3z"/>
<path d="M2363 884 c-4 -12 2 -25 21 -41 29 -25 46 -23 46 5 0 24 -12 38 -38
46 -16 5 -24 3 -29 -10z"/>
<path d="M3790 890 c0 -5 5 -10 10 -10 6 0 10 5 10 10 0 6 -4 10 -10 10 -5 0
-10 -4 -10 -10z"/>
<path d="M5147 882 c-10 -10 -17 -29 -17 -41 0 -21 40 -71 58 -71 19 0 42 27
48 56 11 57 -53 97 -89 56z"/>
<path d="M2650 870 c0 -5 7 -10 15 -10 8 0 15 5 15 10 0 6 -7 10 -15 10 -8 0
-15 -4 -15 -10z"/>
<path d="M2320 842 c0 -5 7 -16 16 -23 14 -12 16 -11 13 5 -4 20 -29 35 -29
18z"/>
<path d="M2645 830 c3 -5 10 -10 16 -10 5 0 9 5 9 10 0 6 -7 10 -16 10 -8 0
-12 -4 -9 -10z"/>
<path d="M2950 830 c0 -5 5 -10 10 -10 6 0 10 5 10 10 0 6 -4 10 -10 10 -5 0
-10 -4 -10 -10z"/>
<path d="M3522 819 c2 -7 10 -15 17 -17 8 -3 12 1 9 9 -2 7 -10 15 -17 17 -8
3 -12 -1 -9 -9z"/>
<path d="M1990 801 c0 -12 6 -21 15 -21 8 0 15 4 15 9 0 5 -7 14 -15 21 -13
10 -15 9 -15 -9z"/>
<path d="M1607 784 c-14 -14 -7 -35 11 -32 9 2 17 10 17 17 0 16 -18 25 -28
15z"/>
<path d="M2861 781 c-8 -5 -10 -14 -6 -21 6 -9 10 -8 17 4 12 21 7 28 -11 17z"/>
<path d="M3750 755 c0 -17 5 -25 13 -22 6 2 12 12 12 22 0 10 -6 20 -12 23 -8
2 -13 -6 -13 -23z"/>
<path d="M1680 755 c0 -8 5 -15 10 -15 6 0 10 7 10 15 0 8 -4 15 -10 15 -5 0
-10 -7 -10 -15z"/>
<path d="M5380 754 c0 -8 5 -12 10 -9 6 3 10 10 10 16 0 5 -4 9 -10 9 -5 0
-10 -7 -10 -16z"/>
<path d="M2955 740 c-7 -12 2 -30 16 -30 5 0 9 9 9 20 0 21 -15 27 -25 10z"/>
<path d="M2470 720 c0 -5 5 -10 10 -10 6 0 10 5 10 10 0 6 -4 10 -10 10 -5 0
-10 -4 -10 -10z"/>
<path d="M1960 709 c0 -5 5 -7 10 -4 6 3 10 8 10 11 0 2 -4 4 -10 4 -5 0 -10
-5 -10 -11z"/>
<path d="M2356 676 c3 -9 11 -16 16 -16 13 0 5 23 -10 28 -7 2 -10 -2 -6 -12z"/>
<path d="M2820 676 c0 -8 4 -17 9 -20 11 -7 33 18 24 27 -12 12 -33 7 -33 -7z"/>
<path d="M5238 679 c-37 -21 -13 -99 31 -99 40 0 57 63 25 94 -18 18 -32 20
-56 5z"/>
<path d="M2790 669 c0 -5 5 -7 10 -4 6 3 10 8 10 11 0 2 -4 4 -10 4 -5 0 -10
-5 -10 -11z"/>
<path d="M3243 664 c-7 -18 9 -51 23 -46 14 3 11 55 -3 59 -7 3 -16 -3 -20
-13z"/>
<path d="M2370 625 c-11 -13 -10 -14 4 -9 9 3 16 10 16 15 0 13 -6 11 -20 -6z"/>
<path d="M3050 575 c0 -9 6 -12 15 -9 8 4 15 10 15 15 0 5 -7 9 -15 9 -8 0
-15 -7 -15 -15z"/>
<path d="M2425 560 c-8 -13 4 -32 16 -25 12 8 12 35 0 35 -6 0 -13 -4 -16 -10z"/>
<path d="M2830 559 c0 -5 5 -7 10 -4 6 3 10 8 10 11 0 2 -4 4 -10 4 -5 0 -10
-5 -10 -11z"/>
<path d="M2664 525 c-4 -8 -3 -22 0 -31 5 -13 9 -14 21 -4 8 7 15 21 15 31 0
23 -28 25 -36 4z"/>
<path d="M2815 520 c3 -5 10 -10 16 -10 5 0 9 5 9 10 0 6 -7 10 -16 10 -8 0
-12 -4 -9 -10z"/>
<path d="M2994 516 c-13 -33 59 -118 86 -101 20 12 10 56 -19 86 -32 31 -58
37 -67 15z"/>
<path d="M3215 440 c3 -5 8 -10 11 -10 2 0 4 5 4 10 0 6 -5 10 -11 10 -5 0 -7
-4 -4 -10z"/>
<path d="M2820 430 c-8 -5 -11 -12 -7 -16 4 -4 13 -2 19 4 15 15 7 24 -12 12z"/>
<path d="M2375 400 c3 -5 8 -10 11 -10 2 0 4 5 4 10 0 6 -5 10 -11 10 -5 0 -7
-4 -4 -10z"/>
<path d="M3500 400 c0 -5 5 -10 10 -10 6 0 10 5 10 10 0 6 -4 10 -10 10 -5 0
-10 -4 -10 -10z"/>
<path d="M2810 390 c0 -5 5 -10 11 -10 5 0 7 5 4 10 -3 6 -8 10 -11 10 -2 0
-4 -4 -4 -10z"/>
<path d="M2890 375 c-10 -12 -10 -18 0 -30 17 -21 37 -19 45 5 12 37 -20 55
-45 25z"/>
<path d="M2417 374 c-11 -11 74 -94 95 -94 26 0 22 25 -9 59 -28 31 -72 48
-86 35z"/>
<path d="M2830 360 c0 -5 5 -10 10 -10 6 0 10 5 10 10 0 6 -4 10 -10 10 -5 0
-10 -4 -10 -10z"/>
<path d="M2985 265 c-30 -29 -32 -64 -5 -98 26 -32 25 -40 -5 -68 -32 -31 -34
-64 -2 -55 12 3 28 6 35 6 21 0 37 47 22 65 -15 18 1 20 19 3 18 -19 51 25 51
67 0 53 -16 81 -51 94 -41 14 -36 15 -64 -14z"/>
<path d="M2798 205 c-3 -3 -3 -17 0 -31 4 -23 6 -24 23 -8 10 9 15 22 12 30
-5 14 -25 19 -35 9z"/>
<path d="M2460 140 c0 -5 8 -10 17 -10 9 0 25 -8 35 -17 14 -12 21 -14 30 -5
9 9 3 15 -25 27 -42 18 -57 19 -57 5z"/>
<path d="M2570 80 c0 -5 14 -10 31 -10 17 0 28 4 24 10 -3 6 -17 10 -31 10
-13 0 -24 -4 -24 -10z"/>
<path d="M2910 16 c0 -9 7 -16 16 -16 9 0 14 5 12 12 -6 18 -28 21 -28 4z"/>
</g>
</svg>
