<?xml version="1.0" standalone="no"?>
<!DOCTYPE svg PUBLIC "-//W3C//DTD SVG 20010904//EN"
 "http://www.w3.org/TR/2001/REC-SVG-20010904/DTD/svg10.dtd">
<svg version="1.0" xmlns="http://www.w3.org/2000/svg"
 width="512.000000pt" height="512.000000pt" viewBox="0 0 512.000000 512.000000"
 preserveAspectRatio="xMidYMid meet">

<g transform="translate(0.000000,512.000000) scale(0.100000,-0.100000)"
fill="#000000" stroke="none">
<path d="M2441 5105 c-35 -8 -93 -28 -130 -46 -45 -21 -79 -31 -107 -30 -48 2
-80 -9 -113 -38 -21 -18 -23 -26 -16 -67 l7 -46 -254 -255 -253 -254 -37 5
c-24 4 -38 2 -38 -5 0 -6 -12 -1 -26 10 -35 27 -38 27 -80 -11 -23 -21 -34
-39 -31 -50 3 -11 1 -15 -6 -11 -6 4 -8 -1 -5 -15 4 -13 -1 -27 -13 -38 -10
-9 -19 -24 -20 -33 0 -10 -2 -12 -6 -3 -7 17 -23 15 -23 -3 0 -9 -9 -15 -25
-15 -17 0 -23 -4 -19 -15 3 -8 -4 -28 -16 -45 -18 -25 -19 -30 -6 -30 24 0 19
-18 -14 -50 -18 -17 -28 -35 -24 -42 4 -6 3 -8 -4 -4 -6 3 -14 1 -18 -5 -3 -6
-19 -9 -34 -5 -22 4 -29 1 -33 -15 -3 -12 -10 -18 -16 -14 -6 3 -23 -7 -37
-22 -14 -15 -32 -27 -40 -25 -17 4 -18 -10 -2 -26 8 -8 8 -12 1 -12 -6 0 -13
-18 -15 -40 -2 -22 0 -40 5 -40 12 0 -35 -50 -47 -50 -4 0 -6 8 -3 19 7 28 -9
48 -48 61 -19 6 -35 15 -35 20 0 18 -33 40 -60 40 -35 0 -48 -17 -26 -33 12
-9 16 -35 17 -117 2 -125 -6 -172 -29 -168 -11 2 -18 -5 -20 -20 -2 -13 -9
-21 -15 -19 -7 2 -16 -5 -22 -16 -5 -11 -16 -22 -24 -25 -8 -3 -11 0 -7 7 14
23 -23 -1 -39 -26 -11 -16 -20 -21 -28 -15 -12 9 -51 -21 -40 -31 2 -3 -9 -13
-26 -23 -17 -10 -31 -24 -31 -30 0 -6 -7 -17 -15 -24 -11 -9 -15 -9 -15 -1 0
7 -4 10 -9 7 -5 -3 -14 0 -20 8 -7 8 -20 12 -31 9 -35 -9 -51 -49 -54 -134 -3
-72 -6 -83 -31 -109 -27 -28 -29 -28 -57 -14 -28 15 -30 14 -35 -6 -3 -12 -11
-19 -19 -16 -7 3 -16 1 -19 -4 -4 -6 1 -10 10 -10 13 0 14 -4 5 -20 -6 -11 -8
-25 -4 -31 4 -7 -1 -9 -12 -7 -19 3 -54 -30 -54 -50 0 -6 -9 -13 -19 -17 -12
-4 -18 -12 -14 -21 6 -16 -22 -20 -32 -4 -10 16 -25 2 -18 -16 3 -9 13 -14 24
-11 13 4 4 -11 -26 -45 -79 -88 -86 -187 -19 -275 l26 -34 22 20 c27 26 36 26
36 4 -1 -22 -23 -53 -39 -53 -6 0 -11 -8 -11 -18 0 -10 -5 -23 -11 -29 -6 -6
-9 -21 -7 -34 2 -18 9 -23 24 -22 18 2 23 -5 28 -37 4 -27 11 -40 22 -40 12 0
15 7 12 24 -4 17 -1 23 9 19 7 -3 20 0 28 7 12 10 16 9 21 -4 11 -29 27 -17
22 17 -7 45 0 63 16 41 19 -26 38 -7 34 34 -2 23 1 37 9 37 6 0 21 12 33 28
12 15 30 27 41 27 11 0 47 13 80 30 l60 29 -2 -329 c-1 -238 -4 -330 -12 -334
-9 -3 -8 -5 1 -5 9 -1 12 -57 12 -246 0 -139 -4 -245 -9 -245 -13 0 -51 -68
-51 -91 0 -10 10 -29 23 -41 26 -27 66 -105 67 -131 0 -28 54 -77 85 -77 21 0
26 4 25 23 -4 48 0 82 9 69 4 -8 12 -13 17 -12 5 1 16 -19 25 -45 9 -25 22
-52 30 -59 36 -34 148 46 168 121 7 23 11 154 11 326 0 158 3 287 6 287 15 0
36 -34 43 -72 l9 -43 1 47 c1 40 4 46 17 41 14 -5 16 -2 11 19 l-7 25 65 -5
c44 -3 65 -1 66 7 3 21 4 26 13 39 11 18 1 25 -52 42 -24 8 -48 22 -53 32 -5
10 -16 18 -23 18 -11 0 -41 47 -38 61 0 3 -9 40 -22 83 l-22 79 22 64 c13 36
29 73 37 82 25 29 42 129 24 142 -5 3 -10 21 -11 40 -5 53 -6 55 -16 39 -8
-12 -10 -9 -10 12 0 15 4 29 8 32 9 5 7 94 -3 142 -4 19 -18 37 -36 48 l-29
17 0 147 c1 144 1 147 19 125 16 -20 21 -20 37 -8 11 8 27 15 37 15 10 0 29 7
42 16 14 9 33 13 45 9 18 -6 20 -2 20 30 0 24 4 34 11 29 8 -4 9 3 4 25 -4 20
-3 31 4 31 6 0 11 20 11 48 0 26 7 57 15 69 19 27 71 54 90 47 7 -3 23 4 34
15 12 12 24 20 29 20 16 -3 72 14 72 22 0 5 11 14 25 19 14 5 25 14 25 19 0 6
12 16 28 23 18 9 28 22 30 41 2 15 7 27 12 27 5 0 14 16 21 37 10 31 9 38 -5
48 -9 7 -16 16 -16 21 0 14 464 474 478 474 15 0 16 -17 0 -22 -7 -3 -6 -12 6
-30 10 -15 17 -37 16 -50 -5 -57 -1 -68 24 -66 20 2 23 5 15 20 -9 16 -7 18
14 13 22 -6 24 -4 20 19 -6 28 5 34 25 14 9 -9 12 -8 12 5 0 11 6 15 18 11 16
-5 16 -5 0 9 -21 17 -23 34 -5 40 9 3 9 11 0 36 -8 23 -9 40 -2 59 6 15 8 43
5 62 -3 19 -3 29 0 22 8 -16 24 -5 24 17 0 30 42 61 83 61 23 0 40 5 43 14 3
8 17 17 30 20 27 7 71 46 97 89 21 33 37 35 38 5 0 -13 3 -17 6 -10 2 6 9 10
14 6 13 -8 11 10 -3 24 -9 9 -5 9 15 0 14 -7 28 -17 30 -23 2 -5 3 -2 2 8 -2
10 3 17 13 17 10 0 32 9 50 20 18 11 39 20 47 20 28 0 15 20 -12 21 l-28 0 25
12 c14 6 31 17 38 24 14 13 32 17 32 7 0 -3 -5 -14 -10 -25 -7 -13 -7 -19 0
-19 5 0 10 8 11 18 0 15 2 14 10 -3 8 -17 8 -17 6 7 -1 15 3 27 8 27 6 0 10
-8 10 -18 0 -11 3 -23 8 -27 4 -4 7 -2 7 4 0 7 4 12 9 12 14 0 505 -498 511
-518 3 -9 16 -29 29 -44 12 -14 23 -30 23 -35 1 -4 12 -25 24 -45 17 -26 24
-52 24 -87 0 -31 5 -53 15 -61 14 -11 14 -15 -2 -32 -17 -19 -17 -19 9 -13 21
5 27 3 33 -14 8 -25 35 -28 35 -3 0 9 16 27 35 39 30 20 36 21 49 8 8 -8 17
-15 20 -15 3 0 15 -9 26 -20 11 -11 27 -20 35 -20 8 0 15 -4 15 -9 0 -5 140
-148 310 -317 l310 -308 0 -173 c0 -109 -4 -173 -10 -173 -11 0 -14 -33 -4
-43 4 -4 8 -22 10 -41 2 -25 -2 -38 -14 -45 -16 -10 -16 -10 1 -11 20 0 23
-16 5 -24 -10 -4 -9 -9 3 -17 14 -10 15 -18 7 -43 -6 -17 -15 -35 -19 -40 -5
-6 -9 -23 -9 -38 0 -21 6 -31 26 -38 20 -8 24 -14 18 -28 -5 -9 -10 -110 -12
-224 -2 -125 -7 -208 -12 -208 -6 0 -10 4 -10 9 0 5 -7 12 -16 15 -26 10 -54
-22 -51 -58 1 -20 -3 -31 -11 -31 -8 0 -19 -8 -26 -17 -7 -10 -17 -18 -22 -18
-4 0 -3 5 4 12 17 17 15 33 -2 19 -18 -15 -17 -53 2 -46 7 2 10 0 7 -5 -3 -5
3 -20 14 -32 23 -24 27 -43 11 -53 -6 -4 -7 -13 -1 -24 7 -13 4 -27 -10 -50
-14 -23 -18 -42 -14 -62 7 -31 21 -30 36 5 9 21 10 21 5 -1 -6 -32 12 -39 20
-8 9 36 27 32 19 -5 -8 -34 0 -51 19 -44 20 8 30 55 14 66 -10 7 -10 9 2 5 13
-3 16 -40 20 -224 l5 -221 30 -43 c17 -23 45 -50 64 -60 31 -16 37 -17 63 -3
16 8 38 12 48 9 15 -5 18 -2 14 8 -2 7 1 19 9 25 11 9 23 5 55 -19 23 -17 40
-34 37 -39 -9 -14 45 -58 64 -53 13 3 23 -2 30 -16 14 -25 31 -28 31 -5 0 25
28 47 53 40 12 -3 28 -1 36 3 11 7 10 12 -8 27 -11 10 -21 26 -21 36 0 9 -9
22 -20 28 -11 6 -20 18 -20 28 0 20 -38 48 -59 43 -13 -2 -13 0 -2 13 8 9 10
16 5 16 -13 0 -34 49 -23 56 5 3 9 299 9 707 l0 701 40 -39 c22 -21 40 -47 40
-58 0 -10 5 -15 10 -12 6 4 10 -5 10 -20 0 -18 -4 -24 -12 -18 -7 4 -22 9 -33
10 -16 3 -14 -2 13 -30 18 -18 29 -36 26 -40 -4 -4 -2 -7 4 -7 7 0 12 9 12 21
0 27 24 19 28 -9 2 -12 17 -29 33 -39 16 -10 29 -23 29 -30 0 -6 14 -27 31
-45 17 -18 35 -43 40 -55 11 -28 33 -31 26 -3 -6 24 1 25 25 3 17 -15 18 -15
18 2 0 14 3 15 14 6 18 -15 66 -24 66 -12 0 5 -6 14 -14 20 -8 7 -19 24 -24
40 -8 24 -7 27 11 28 12 1 27 -3 34 -9 8 -6 17 -7 21 -3 4 4 -3 14 -15 22 -13
9 -23 21 -23 29 0 7 -9 19 -21 27 -14 11 -17 17 -9 22 7 4 15 4 19 -1 3 -5 18
-17 34 -27 15 -10 27 -24 27 -31 0 -20 27 -40 35 -26 8 13 -20 58 -52 83 l-23
18 30 38 c48 59 60 120 39 196 -9 30 -41 70 -141 172 -72 72 -140 133 -152
135 -13 2 -21 10 -21 23 0 14 -7 20 -22 19 -12 0 -20 3 -17 8 9 15 -18 39 -37
33 -9 -3 -21 0 -25 6 -5 8 -3 10 7 4 8 -5 6 1 -4 12 -11 12 -14 24 -9 27 14 9
-9 54 -30 59 -9 3 -19 -1 -22 -9 -10 -25 -25 -15 -28 18 -2 25 -14 40 -48 66
-25 19 -53 50 -63 69 -18 35 -18 35 2 28 27 -8 26 -4 -4 41 -14 20 -25 45 -25
55 0 10 -4 21 -10 24 -5 3 -10 15 -10 26 0 14 7 19 25 19 14 0 25 2 25 5 0 8
-52 55 -60 55 -10 0 -30 57 -30 85 0 13 -7 25 -15 28 -8 4 -21 21 -28 40 -8
18 -21 34 -28 34 -8 0 -24 3 -36 7 -14 4 -23 3 -24 -3 -1 -6 -2 -16 -3 -21 0
-6 -16 -20 -35 -31 -32 -19 -36 -20 -47 -4 -11 15 -13 15 -17 -2 -2 -10 -4 -2
-5 17 0 19 -4 50 -7 68 -6 25 -10 30 -20 22 -10 -8 -15 -2 -20 30 -8 47 -25
54 -25 10 0 -16 -4 -30 -10 -30 -5 0 -10 8 -10 18 0 18 -31 62 -44 62 -3 0 -6
-9 -6 -20 0 -11 -4 -20 -9 -20 -5 0 -11 -10 -13 -22 -3 -20 -15 -11 -91 67
-55 58 -86 98 -87 112 0 13 -9 28 -20 35 -11 7 -20 18 -20 25 0 11 -24 18 -51
15 -3 -1 -84 78 -180 174 -96 96 -166 172 -155 168 16 -6 17 -4 7 14 -6 11
-24 33 -40 50 -16 16 -37 46 -45 67 -13 30 -20 36 -37 32 -24 -6 -68 11 -85
32 -6 8 -19 39 -28 68 -9 29 -21 53 -27 53 -5 0 -9 9 -9 19 0 14 -7 19 -25 17
-14 0 -25 -7 -25 -13 0 -7 -4 -13 -10 -13 -5 0 -10 6 -10 14 0 8 -19 27 -42
43 -35 23 -43 35 -46 63 -5 78 -14 123 -21 111 -10 -15 -32 -11 -47 8 -9 12
-13 7 -19 -27 -3 -23 -4 -45 -1 -50 6 -10 -63 -37 -72 -28 -3 4 0 12 6 18 20
20 13 34 -25 52 -98 43 -246 56 -362 31z m389 -176 c0 -11 -4 -17 -10 -14 -5
3 -10 15 -10 26 0 11 5 17 10 14 6 -3 10 -15 10 -26z m300 -70 c0 -6 -4 -7
-10 -4 -5 3 -10 11 -10 16 0 6 5 7 10 4 6 -3 10 -11 10 -16z m-736 -275 c3 -9
3 -20 0 -25 -8 -13 -34 9 -34 27 0 19 26 18 34 -2z m-40 -66 c-9 -14 -23 2
-17 18 4 12 8 13 14 3 4 -7 5 -17 3 -21z m2016 -781 c0 -6 -9 -2 -20 8 -11 10
-20 23 -20 28 0 6 9 2 20 -8 11 -10 20 -23 20 -28z m-3048 -56 c-9 -5 -11 -17
-7 -34 5 -20 3 -28 -9 -33 -9 -3 -16 -13 -16 -21 0 -8 -5 -11 -11 -7 -24 15
15 104 45 104 6 0 5 -4 -2 -9z m-826 -1008 c-3 -4 -20 -7 -37 -8 l-30 -2 33
29 c32 27 33 27 36 7 2 -11 1 -23 -2 -26z m-322 -192 c4 -5 -3 -7 -14 -4 -23
6 -26 13 -6 13 8 0 17 -4 20 -9z m4723 -83 c-3 -8 -6 -5 -6 6 -1 11 2 17 5 13
3 -3 4 -12 1 -19z m-557 -109 c-7 -11 -14 -19 -16 -16 -7 7 7 37 17 37 6 0 5
-9 -1 -21z m120 -204 c0 -17 -35 -55 -50 -55 -6 0 -6 10 1 27 15 39 49 59 49
28z"/>
<path d="M1926 4063 c-6 -14 -5 -15 5 -6 7 7 10 15 7 18 -3 3 -9 -2 -12 -12z"/>
<path d="M4020 4063 c0 -5 5 -15 10 -23 8 -12 10 -11 10 8 0 12 -4 22 -10 22
-5 0 -10 -3 -10 -7z"/>
<path d="M1140 4020 c0 -5 5 -10 11 -10 5 0 7 5 4 10 -3 6 -8 10 -11 10 -2 0
-4 -4 -4 -10z"/>
<path d="M4110 4021 c0 -17 18 -21 24 -6 3 9 0 15 -9 15 -8 0 -15 -4 -15 -9z"/>
<path d="M605 3500 c-3 -5 1 -10 10 -10 9 0 13 5 10 10 -3 6 -8 10 -10 10 -2
0 -7 -4 -10 -10z"/>
<path d="M2657 3344 c-3 -3 -3 -12 0 -20 3 -9 0 -12 -9 -9 -9 4 -20 -7 -31
-30 l-17 -36 -31 22 c-17 12 -33 27 -36 35 -2 7 -13 12 -23 11 -15 -1 -17 -4
-7 -16 10 -11 9 -13 -3 -9 -24 8 -90 -52 -86 -78 2 -11 -16 -32 -46 -57 -168
-133 -184 -387 -33 -526 l45 -41 0 -135 c0 -77 -4 -135 -9 -135 -11 0 -26 -39
-23 -57 2 -6 -2 -14 -8 -18 -6 -4 -7 -12 -1 -24 5 -9 11 -47 13 -84 2 -46 7
-67 15 -67 21 0 18 -361 -3 -401 -12 -24 -13 -34 -3 -45 6 -8 8 -14 4 -14 -4
0 -2 -7 5 -15 10 -12 10 -15 -1 -15 -10 0 -11 -3 -3 -8 11 -7 11 -56 1 -185
-2 -26 0 -50 5 -53 4 -3 8 -63 8 -134 l0 -130 -27 11 c-16 6 -38 13 -51 14
-19 3 -21 1 -11 -11 6 -8 8 -14 3 -14 -5 -1 2 -10 15 -20 13 -11 18 -20 11
-20 -7 0 -10 -7 -6 -17 4 -10 4 -14 0 -11 -6 7 -44 -33 -44 -46 0 -3 7 -6 16
-6 11 0 14 -5 10 -16 -4 -11 3 -25 21 -40 24 -21 30 -22 39 -9 17 23 24 6 24
-63 0 -63 0 -64 -25 -60 -32 7 -60 -14 -52 -36 5 -12 13 -15 27 -11 34 11 43
-5 18 -31 -13 -13 -28 -24 -33 -24 -6 0 -17 -19 -25 -42 -8 -23 -21 -44 -29
-46 -8 -3 -11 0 -7 7 5 8 0 8 -19 1 -15 -6 -39 -10 -55 -10 -20 0 -31 -6 -35
-19 -7 -22 -37 -35 -76 -33 -15 1 -32 -5 -39 -13 -7 -8 -23 -15 -36 -15 -26 0
-90 -38 -99 -59 -3 -8 -1 -19 5 -25 6 -6 5 -15 -6 -27 -24 -27 -10 -39 31 -28
19 6 40 7 45 4 8 -5 127 37 228 81 42 18 48 18 31 -2 -8 -9 -9 -18 -3 -22 5
-4 9 -38 9 -77 0 -126 72 -238 191 -296 90 -45 200 -50 287 -14 13 6 16 3 11
-9 -3 -9 -1 -16 5 -16 7 0 14 7 17 15 9 22 72 55 105 55 22 0 29 4 27 16 -2 9
5 21 14 27 13 9 21 7 36 -6 19 -17 20 -17 33 28 9 30 19 45 30 45 19 0 33 51
17 61 -5 3 -10 20 -10 38 -1 29 -4 32 -24 27 -29 -8 -33 0 -45 76 -13 82 -59
177 -109 222 l-40 36 3 77 c1 54 6 78 16 81 10 3 11 -2 6 -19 -16 -51 -15 -53
5 -15 18 31 26 37 46 33 17 -3 24 0 24 12 1 13 3 13 15 -3 9 -12 15 -15 15 -7
0 8 6 11 15 7 17 -6 21 19 5 29 -5 3 -10 17 -10 30 0 13 -6 25 -12 28 -10 3
-10 9 1 29 15 28 7 52 -14 44 -9 -3 -15 4 -17 22 -2 19 -10 28 -25 30 -19 3
-23 10 -23 37 0 18 -3 40 -6 49 -9 24 -32 19 -37 -6 -2 -13 -5 184 -6 436 -1
414 -3 460 -18 471 -18 13 -10 37 11 29 7 -3 18 1 24 8 12 15 19 159 9 175 -4
6 0 16 8 23 24 20 19 73 -10 100 -24 22 -25 29 -25 137 l0 113 40 36 c59 54
102 148 108 238 6 98 -9 142 -55 161 -27 11 -34 19 -28 32 4 13 -4 27 -30 48
-33 29 -35 33 -25 60 6 17 8 46 4 70 -7 39 -7 39 -16 13 -9 -25 -35 -44 -46
-33 -3 3 2 13 11 23 10 10 17 26 17 36 0 14 -6 16 -29 11 -26 -6 -31 -3 -46
29 -19 39 -19 39 -28 30z m31 -2026 c14 -14 16 -74 3 -82 -10 -6 -31 37 -31
64 0 10 -8 21 -17 23 -12 3 -9 5 8 6 14 0 30 -4 37 -11z m-411 -980 c-3 -8 -6
-5 -6 6 -1 11 2 17 5 13 3 -3 4 -12 1 -19z m413 -298 c13 -8 13 -10 -2 -10 -9
0 -20 5 -23 10 -8 13 5 13 25 0z"/>
<path d="M991 3084 c0 -11 3 -14 6 -6 3 7 2 16 -1 19 -3 4 -6 -2 -5 -13z"/>
<path d="M2977 3063 c-4 -3 -7 -11 -7 -17 0 -6 5 -5 12 2 6 6 9 14 7 17 -3 3
-9 2 -12 -2z"/>
<path d="M1640 2771 c0 -6 15 -18 33 -28 l32 -18 -65 -6 c-36 -4 -79 -11 -96
-17 -17 -5 -37 -6 -45 -2 -11 7 -57 7 -89 0 -3 0 5 -9 18 -20 20 -17 22 -22
11 -42 -7 -13 -11 -25 -10 -26 2 -2 1 -6 -2 -8 -2 -2 -10 2 -17 11 -18 22 -30
18 -30 -9 0 -13 -6 -26 -12 -29 -10 -4 -10 -7 0 -18 6 -7 12 -20 12 -28 0 -18
-60 -72 -71 -65 -5 3 -14 2 -21 -2 -8 -5 -7 -10 4 -18 10 -8 17 -36 20 -88 6
-94 48 -187 108 -242 l40 -36 0 -105 c0 -95 -2 -104 -17 -98 -10 3 -25 12 -35
20 -13 12 -18 12 -25 1 -4 -7 -17 -18 -28 -24 -21 -12 -40 -84 -22 -84 5 0 7
-14 5 -30 -5 -35 17 -64 28 -36 3 9 14 16 23 16 9 0 21 4 27 10 12 12 16 -10
18 -112 0 -44 5 -76 11 -75 6 1 9 -7 7 -18 -1 -11 -3 -37 -3 -57 0 -20 -7 -42
-15 -48 -7 -7 -12 -15 -10 -19 3 -4 -3 -36 -13 -71 -23 -85 -19 -178 9 -202
11 -9 20 -21 20 -27 0 -6 5 -11 10 -11 6 0 10 -38 10 -95 l0 -95 -40 0 c-25 0
-43 -5 -46 -14 -3 -8 -17 -16 -32 -20 -33 -7 -100 -66 -95 -83 4 -12 -11 -30
-68 -76 -29 -24 -40 -27 -75 -22 -31 4 -46 2 -58 -10 -9 -9 -16 -12 -16 -6 0
7 -17 10 -45 7 -25 -3 -45 -2 -45 2 0 9 -79 14 -140 9 -19 -2 -25 -8 -25 -25
0 -13 -6 -26 -12 -30 -9 -6 -9 -14 2 -35 7 -15 12 -27 9 -27 -3 0 0 -9 6 -19
7 -15 3 -33 -18 -78 -23 -49 -27 -71 -27 -143 0 -71 4 -94 26 -141 37 -79 90
-133 167 -171 64 -32 71 -33 211 -36 l144 -4 -5 31 c-2 17 -1 31 4 31 4 0 8 3
7 8 -1 4 2 18 6 30 5 16 10 20 15 12 4 -7 13 -9 20 -5 23 14 71 100 87 155 8
30 21 58 27 62 17 12 64 9 68 -4 5 -13 58 18 58 34 0 11 40 47 53 48 5 0 5 -5
1 -12 -4 -7 -3 -8 4 -4 7 4 12 17 12 28 0 29 47 88 70 88 10 0 22 5 26 12 10
16 11 58 2 58 -14 0 -8 38 7 44 8 3 15 2 15 -3 0 -4 14 -8 30 -8 17 0 30 3 30
7 0 4 12 12 26 18 14 7 22 17 19 22 -3 6 -1 10 5 10 15 0 11 77 -5 115 -7 17
-16 56 -19 88 -3 31 -8 62 -12 69 -5 8 -2 9 9 5 16 -6 17 13 18 218 2 265 0
241 21 257 14 10 16 20 10 48 -12 51 -8 105 14 190 9 35 5 166 -7 219 -5 24
-16 53 -24 65 -10 13 -15 45 -15 86 0 56 3 67 21 79 16 9 23 10 29 1 7 -11 41
47 46 79 2 8 10 21 19 30 14 15 16 14 21 -7 4 -12 12 -22 20 -22 10 0 10 5 -2
28 -22 43 -17 61 10 29 l23 -29 6 44 c7 51 -13 177 -36 228 -9 19 -18 47 -22
62 -3 15 -19 43 -35 62 -17 18 -30 38 -30 42 0 25 -22 84 -32 84 -5 0 -8 -7
-4 -15 13 -34 -24 -61 -49 -36 -6 5 -19 11 -29 13 -12 2 -24 17 -31 38 -8 23
-18 35 -31 36 -10 0 -27 4 -37 8 -10 5 -23 3 -32 -4 -12 -10 -18 -10 -30 0
-10 8 -15 9 -15 1z"/>
<path d="M3630 2529 c0 -6 -8 -9 -17 -8 -40 4 -64 -2 -81 -19 -53 -53 -129
-77 -140 -44 -3 11 10 16 31 13 9 -1 10 33 1 42 -7 6 -34 -16 -34 -28 0 -10
-30 -38 -30 -28 -1 4 -7 -3 -15 -17 -10 -17 -14 -20 -15 -9 0 9 -6 22 -14 29
-8 6 -16 24 -18 38 -5 40 -33 35 -33 -6 -1 -18 2 -38 6 -43 9 -15 -11 -79 -25
-81 -6 0 -18 -2 -26 -2 -11 -1 -14 -12 -12 -44 2 -23 0 -42 -5 -42 -5 0 -9 -8
-10 -17 -1 -10 -11 -45 -23 -78 -43 -118 -4 -274 90 -359 l40 -36 0 -477 c0
-294 4 -492 10 -515 6 -20 31 -59 56 -87 38 -42 49 -49 64 -41 23 12 33 13 26
1 -11 -16 11 -56 38 -70 14 -8 26 -21 26 -29 0 -7 9 -16 20 -19 12 -3 19 -11
17 -17 -3 -6 9 -26 26 -44 23 -23 32 -43 33 -72 1 -22 -1 -42 -6 -45 -4 -2 -5
-15 -3 -28 3 -13 -3 -32 -14 -45 -17 -20 -20 -20 -52 -7 -23 10 -31 20 -27 30
4 12 -3 15 -29 15 -40 0 -45 -7 -12 -20 l22 -9 -22 0 c-28 -1 -29 -9 -6 -27
10 -7 15 -16 11 -20 -4 -4 -14 -1 -23 6 -13 10 -15 9 -15 -9 0 -11 9 -26 20
-33 11 -7 20 -20 20 -29 0 -9 12 -21 26 -27 14 -7 23 -8 19 -2 -3 5 3 10 14
10 13 0 23 -8 26 -23 4 -13 15 -28 25 -35 37 -23 125 -53 170 -58 25 -3 63
-13 85 -21 107 -39 132 -44 196 -40 84 5 162 41 228 102 59 55 92 58 119 10 9
-16 22 -33 27 -37 17 -13 40 -4 40 16 0 11 8 20 19 22 10 1 23 7 28 12 10 10
-48 161 -68 178 -8 6 -12 18 -8 27 6 17 -28 41 -41 29 -5 -4 -5 2 -1 12 4 12
0 26 -11 39 -10 11 -12 17 -5 13 9 -6 12 1 11 26 -1 18 2 49 6 68 l7 35 -25
-27 -26 -27 -34 48 c-63 88 -156 140 -262 149 -55 4 -63 8 -83 37 -18 26 -21
40 -16 74 7 44 -5 54 -33 26 -23 -24 -43 -15 -78 35 -17 25 -43 51 -58 58 -15
7 -27 19 -27 26 0 8 -9 16 -19 19 -14 3 -18 1 -14 -9 3 -8 0 -14 -6 -14 -7 0
-11 40 -11 124 l0 125 27 -14 c33 -17 67 -3 58 24 -3 9 1 26 9 36 12 16 12 22
-1 41 -7 12 -13 26 -12 30 5 31 -4 67 -21 81 -11 10 -20 29 -20 43 0 14 -9 54
-20 88 -14 44 -20 92 -20 154 l0 90 48 47 c58 57 76 90 70 130 -3 21 0 31 8
31 7 0 16 19 20 46 16 108 -21 218 -103 305 -47 50 -48 52 -45 108 3 45 0 60
-15 72 -24 21 -53 31 -53 18z m160 -2444 c7 -8 8 -15 2 -15 -5 0 -15 7 -22 15
-7 8 -8 15 -2 15 5 0 15 -7 22 -15z"/>
<path d="M3405 310 c3 -5 11 -10 16 -10 6 0 7 5 4 10 -3 6 -11 10 -16 10 -6 0
-7 -4 -4 -10z"/>
</g>
</svg>
